<svg xmlns="http://www.w3.org/2000/svg" viewBox="0 0 1192.53 519.17"><title>albertosaurus sarcophagus</title><g id="Layer_2" data-name="Layer 2"><g id="Contours"><path d="M1100.83,519.17a21.19,21.19,0,0,1-.94-3.81,46.84,46.84,0,0,1,3.69,3.56A9.41,9.41,0,0,1,1100.83,519.17Z"/><path d="M1171.58,100.17a29.86,29.86,0,0,0-2,2.39,23.91,23.91,0,0,0-1.35,2.43l-1.67-2.46-.93-1.36a8.83,8.83,0,0,0-1.06,1.23,13.57,13.57,0,0,1-1.64,2.78c-.5.47-1.55.35-2.36.5a13.57,13.57,0,0,1,.12-2.12,16.13,16.13,0,0,1,.7-2.06c-.8.25-1.62.46-2.41.75-2.6,1-5.14,2.34-7.82,2.72-1,.14-2.68-1.79-3.52-3.11s-.92-4.22-1.32-4.22c-2.3,0-5,.09-6.78,1.3-2.33,1.59-3,.58-2.9-1.21.17-4.45-3.31-4.32-5.3-3.36-2.95,1.41-2.77-.13-3.89-1.91a17.5,17.5,0,0,0-12.08-8.21c-5.13-.84-7.61,2.81-9.86,6.78-3.12,5.5-6.93,10.66-6,17.55.1.74-.82,1.62-1.27,2.43-.59-.48-1.38-.86-1.73-1.48-1.61-2.82-2.8-5.93-4.7-8.52a84.39,84.39,0,0,0-9.92-11.86,162.62,162.62,0,0,0-14.93-12c-1.14-.85-3.38-1.44-4.49-.89-5.2,2.58-5.6-1.46-5.74-4.36-.21-4.19-1.91-4.09-4.78-2.62-.55.28-1.11.56-1.64.86-1.91,1.07-5.57,2.63-5.43,3.16.7,2.62,1.88,5.68,3.92,7.2s2.23,2.42,2,5a64.3,64.3,0,0,0,3.29,28.54,8.9,8.9,0,0,0,2.81,3.8c9.7,7.5,19.49,14.88,29.25,22.3,2.79,2.12,5.73,4.07,8.32,6.42,6.21,5.66,12,11.86,18.43,17.2,7.46,6.16,15.66,11.2,26.05,7.31,1.71-.65,3.07-2.23,4.6-3.37a40.38,40.38,0,0,1-3.81-2.58c-6.77-5.83-13.54-11.65-20.21-17.59-8.59-7.64-15.38-16.46-19.06-27.61-1.18-3.59-4.74-4.46-8.59-3.61s-7.49,1.26-11.25,1.82c-3.27.49-6.63-.92-9.81,1.85-2,1.74-7.08-2.75-8.33-5.58-3.22-7.26-1.35-15.7-5.65-22.68-.64-1,0-2.84,0-4.3.94,1.09,2.29,2,2.75,3.29a57.75,57.75,0,0,1,3,10.26c.59,3.52,1.07,6.63,5.44,7.23a3.89,3.89,0,0,1,2.74,1.64c4.46,9.83,12.16,4.32,18.67,4,3.12-.17,6.21-1.57,9.28-1.44,1.37.06,2.9,2.34,3.9,3.91,1.56,2.47,2.42,5.41,4.12,7.76,3.28,4.52,6.87,8.81,10.51,13.05.62.73,2.16.61,3.17,1.1.54.26,1.28,1.09,1.19,1.5-1,4.46,2.28,4.4,5,5,.72.16,2,.88,1.93,1.09-1.61,6.78,4.14,9,8,10,6.81,1.82,7.5,7.45,9.88,12.09.44.86-.83,3.38-2,4.14-8.26,5.52-16.26,5.75-25.35.55-6.76-3.88-11.93-9.15-17.7-14-12.41-10.4-25-20.63-37.91-30.38-9.4-7.09-19.39-13.4-29.24-19.87-8.54-5.61-18.92-6-27.13-.3a138,138,0,0,1-32.81,16.12,49.09,49.09,0,0,0-9.64,4.47c-5.07,3.16-5.68,8.62-6,13.93-.4,5.56.41,11.37-.9,16.67-2.38,9.64-10.14,15.12-18.26,19.85-2.66,1.55-5.71,2.45-8.26,4.14-1.37.9-4,1.84-1.38,4.84,3.95,4.51,6.77,10,10.81,14.42a39.86,39.86,0,0,0,19.12,11.66,9.61,9.61,0,0,1,1.83.94c-.47.64-.88,1.79-1.4,1.84-2.91.29-5.68,1.72-8.63-1.12-4.48-4.31-10.07-7.5-14.45-11.89-4-4-7-9.06-10.54-13.56-8.66-11-4.62-9.53,1.31-18.81.6-.93,3.72-1.52,4.52-.86,4.22,3.47,8.83,1.38,11.42-.82,5.25-4.44,10.46-9.75,9.69-17.74-.16-1.6-1.34-3.09-2-4.63A13.83,13.83,0,0,1,948,149.2c-2.1.35-2.92,4.43-5.88,2,1.47-1.67,2.84-3.44,4.42-5,2.53-2.5,5.58-4.58,7.62-7.41.77-1.06-.38-3.83-1.22-5.55-.27-.55-2.47-.58-3.59-.23-9,2.8-9,2.27-15-5.36-10.51-13.44-21.8-26.18-35.37-36.8-5.35-4.19-10.57-9.07-10.51-17.11,0-3.41-2.66-2.92-5-2-8.45,3.43-12.53,10.81-10.91,19.8.11.56.46,1.57.65,1.56,7.68-.34,1.37,3.78,1.06,4.59-4.2,10.92-9.09,21.57-13.18,32.53a245.75,245.75,0,0,0-12.55,51.31c-.37,2.63-3,6.72.88,7.27,3.64.52,2.55-4.17,3.22-6.9,4.24-17.21,8.33-34.48,13.37-51.47,2.65-8.94,7.32-17.28,10.71-26,2-5.13,7.29-3.5,10.67-5.79,1.08-.73,2.64,2,1.79,4.52-6.25,18.76-12.43,37.53-18.36,56.39a62.92,62.92,0,0,0-2.16,13.08c-.13,1.46,1.08,3,1.68,4.58,1.07-1.42,2.68-2.7,3.1-4.29,1-3.8,1.2-7.81,2.15-11.63,2.56-10.25,5-20.56,8.14-30.63,2.81-9,6.45-17.65,9.93-26.38.28-.7,2.49-1.38,3.28-1a37.93,37.93,0,0,1,6.29,4.14c2.82,2.11,3.49,4.05,1.9,8-5,12.45-9,25.28-13.21,38-.41,1.24.48,2.91.77,4.38.95-1,2.34-1.9,2.79-3.11,2.8-7.68,5.37-15.44,8.08-23.16,1.94-5.52,3.89-11,6.11-16.46.27-.64,2.88-1.19,3.36-.72a100.34,100.34,0,0,1,8.85,9.81,5.51,5.51,0,0,1,.68,4.37c-1.53,4.84-3.5,9.55-5.17,14.35a11.92,11.92,0,0,0-.18,3.29c1.11-.68,2.83-1.11,3.23-2.08,1.59-3.84,2.75-7.86,4.12-11.8.35-1,.87-2,1.32-2.95a12.48,12.48,0,0,1,1.73,2.44c2,5,3.79,10.1,6.05,15a7.71,7.71,0,0,0,4,3.3c2,.79,3.47.66,2.06,3.77-1.07,2.35,0,5.6-.31,8.39a9.23,9.23,0,0,1-2.17,4.54c-.67.8-2.18.89-3.32,1.31a13,13,0,0,0,1.25-3.13c.5-4.13.83-8.27,1.11-12.42,0,0-2.08-.53-2.29-.21-2.27,3.36-4.36,6.84-6.48,10.3-3,4.91-6.07,9.8-9,14.77-5.19,8.85-4,13.85,4.8,18.73,4,2.22,8.22,3.83,9.33,9.11.24,1.17,2.08,2.43,3.44,2.85a12.15,12.15,0,0,1,8.42,9.95,6.07,6.07,0,0,0,.28,1.88c2.54,5.45,5.16,10.86,7.69,16.32a7.38,7.38,0,0,1,.23,2.24c-.93-.13-2.36.08-2.69-.42-3-4.58-5.57-9.38-8.55-13.93-2.76-4.21-5.83-8.22-8.81-12.27-.59-.8-1.47-1.37-2.09-2.15-4.25-5.2-8.53-10.37-12.65-15.68-1.7-2.2-3.22-1.68-5.23-.58-7.06,3.85-13.89,8.39-21.37,11.14A245,245,0,0,1,858.82,214c-11,2.39-22.29,3.29-33.38,5.21-10.46,1.82-17.17,8.27-20.6,18.2a16.8,16.8,0,0,1-14,11.49c-9.89,1.31-20.25,2.41-30,.89-13.28-2.06-25.77.76-38.58,2.31a41.65,41.65,0,0,1-10,0c-4.06-.5-6.23,2.08-6.52,5-.82,7.87-5.68,12.12-12,15.39-2.84,1.47-3,3.08-.55,4.84q12.48,9,25.09,17.87c3.46,2.43,7,4.75,10.67,6.84a14.34,14.34,0,0,0,6.09,2.09c5.95.25,9,1.57,10.44,9.32a51.18,51.18,0,0,1,1,12.57c-.93,13,5,23.78,11,34.48a168.68,168.68,0,0,0,9.86,14.92c4.28,6,1.16,12.36.92,18.55,0,.74-1.33,1.42-2,2.13a10.05,10.05,0,0,1-1.59-2.09c-.49-1.12-.61-2.41-1.07-3.56-.68-1.71-1.18-3.67-2.36-5a88.72,88.72,0,0,0-10.13-10.11c-4.48-3.63-6.28-8.63-8.45-13.56a13.34,13.34,0,0,0-1.74-2.37,21.27,21.27,0,0,0-1.25,3,3.86,3.86,0,0,0,0,2.47c3.29,6.79-1.12,11.15-4.92,15.66a9.55,9.55,0,0,1-2.72,1.59c-.47-1.14-1.62-2.54-1.29-3.37,1.86-4.75-.75-7.11-3.35-10.89-4.78-7-7.33-15.53-10.75-23.45a68.17,68.17,0,0,1-3-7.76c-2.1-7.14-3.75-14.42-6.13-21.47-1.47-4.35-3.92-8.37-6-12.51-.29-.56-1.1-.87-1.35-1.44a39.6,39.6,0,0,1-1.32-3.75c1,.54,2.11,1,3.12,1.62,4.72,2.7,9.4,5.47,14.15,8.11,4.36,2.43,6.87,5.33,4.64,10.8-.66,1.62.06,4.22.93,6,2.51,5.05,2,10,1.17,15.34-.51,3.45,1,7.44,2.36,10.88,2.85,7.14,6.22,14.09,9.41,21.1a12.42,12.42,0,0,0,1.36,1.92c.54-.73,1.65-1.58,1.53-2.16-1.19-5.48-2.64-10.9-3.9-16.36a80.84,80.84,0,0,1-2-10.18c-.56-5.51-.82-11.05-1-16.58,0-1.7.6-3.41.84-5.13.28-2,.4-3.85-2.75-2.7-.74.27-1.94-.75-2.93-1.18.79-.57,1.59-1.13,2.37-1.72,1.81-1.36,4.35-2.42,5.15-4.24.49-1.12-1.25-4-2.73-5.07-8.05-5.74-16.47-11-24.52-16.74a253,253,0,0,1-21.18-16.36c-5-4.46-10-3.06-15.41-2a15.2,15.2,0,0,1-3.89-.28c.95-.55,2-1,2.86-1.65,6.2-4.28,13-1.41,19.5-1.6,5.34-.15,9.1-2.83,11.51-7.27.64-1.18.33-3.93-.59-4.7-2-1.67-5.46-4.15-7-3.44-7.86,3.63-15.31,8.15-22.88,12.4-1.09.62-2,1.51-3.11,2.15s-2.07,1-3.11,1.53c.34-1.14.32-2.78,1.09-3.33,5-3.59,10.1-6.95,15.19-10.35a13,13,0,0,1,1.71-.7l9.24-4.24c-2.4-2.12-5-4.08-7.15-6.41-1.59-1.7-2.46-4-4-5.79-1.33-1.52-4-4-4.62-3.61-1.92,1.12-4.6,3.63-4.4,5.26,1,8.07-4.19,13.3-8.3,18.6-2.46,3.16-7.3,4.51-11.13,6.54-8.34,4.41-17,8.25-25,13.21-11.74,7.3-23.11,15.2-34.39,23.2-5.76,4.08-11,8.93-16.42,13.68-1.74.48-3.74.25-5.15,1.05-2.63,1.5-4,4.18-2.38,7,2.12,3.65,5.88,4.21,9.39,2.6a15.78,15.78,0,0,0,6.27-5.23c6.25-9.23,16.16-13.53,25-19.19s18-11.15,27-16.76c3.62-2.26,7.13-4.24,11.72-4.49,2.66-.15,5.23-2.5,7.75-4,1.89-1.13,3.61-2.55,5.46-3.75,2.38-1.54,4.31-2,3.87,2a1.11,1.11,0,0,0,.36.83c6.41,5.77,12.68,11.71,19.34,17.17,2.08,1.7,4.81,4.36,8.15,1.6-2.21-1.63-4.46-3.21-6.63-4.9-3.27-2.53-6.51-5.11-9.69-7.74-.35-.29-.25-1.1-.36-1.67.9,0,2.05-.3,2.66.14,3.12,2.23,6.08,4.67,9.12,7,1.13.86,2.34,1.61,3.46,2.48,2.16,1.67,5.76,1.87,4,6.75-.68,1.86,3.43,5.25,4.88,8.18,2.44,5,4.53,10.11,6.65,15.23.19.45-.51,1.26-.81,1.9-.37-.39-1-.72-1.09-1.18-3.75-12-13.37-18.34-23.21-24.58-2.3-1.46-5-3.09-6.16-5.34-2-3.83-3.86-3-6.73-1.4-11.68,6.53-24.4,9.3-37.64,10.59a61.36,61.36,0,0,0-35,15.45c-6.58,5.79-11.61,13.35-17.3,20.13-.82,1-1.28,2.42-2.29,3-8.17,4.81-10.59,13.2-13.77,21.25-4.47,11.31-9.47,22.41-13.83,33.77a17.87,17.87,0,0,0-.94,10c1.81,7.34-.62,12.84-5.37,18.09a12.17,12.17,0,0,0-2.56,12.88c3.5,9.34,7.8,12.06,18,12.37,3.37.11,6.73.59,10.08,1,.6.07,1.12.71,1.68,1.08-.47.29-.93.81-1.42.84-6.42.39-12.83.78-19.26.95-.89,0-1.8-1.18-2.71-1.8-1.54-1-3.09-2.08-4.63-3.11-.52-.36-1.3-.6-1.51-1.09-1.88-4.39-5.19-8.87-5.06-13.22.14-4.75,3.48-9.4,5.48-14.07,1-2.27,2.17-4.44,3.08-6.73,1.34-3.36,3.57-7.53-3.54-4.92a2.67,2.67,0,0,1-2-.06,36.58,36.58,0,0,1-3.48-2.35c1.1.14,2.49.78,3.26.34,2-1.17,4.8-2.43,5.57-4.34,3.31-8.13,5.84-16.57,9-24.79,3.6-9.51,7.18-19,11.43-28.26,1.66-3.6,4.81-6.72,7.84-9.42,3.44-3,3.84-5.14.68-7.17-2.26-1.44-2.92-.77-3.8,1.33-.66,1.56-1.66,3.67-3,4.14-9.93,3.49-11.9,12.83-16.07,20.69-1.14,2.16-.8,7.49-6.18,5-.24-.11-1,.76-1.44,1.2-4.09,3.75-8.21,7.47-12.22,11.3-.49.47-.41,1.56-.59,2.37,1.25.12,3,.84,3.68.27,4-3.68,7.82-7.64,11.69-11.51l1.71-1.68c.16.76.65,1.64.44,2.28-1.87,5.72-3.8,11.42-5.85,17.07-1.4,3.84-2.84,7.68-7.61,8.76a3.86,3.86,0,0,0-2.41,2.4c-1.18,5.38-1.82,10.89-3.18,16.22-.86,3.4-2.78,6.51-3.9,9.86a11.59,11.59,0,0,0-.12,4.74c.24,2.19,1.24,4.4,1,6.51-.85,8.73,4.94,13.12,10.91,17.43a77.24,77.24,0,0,0,9,5.93c1.5.8,3.54.65,5.34.76a41.18,41.18,0,0,0,5.21-.08c5.47-.37,10.94-1.09,16.41-1.09,2.51,0,5,1.27,7.52,2.12.34.12.68,1.48.55,1.58-.88.6-2.21,1.68-2.82,1.39-5.54-2.59-10.17,1.15-15.11,1.65-9.88,1-20.49,1.46-28.42-7.37-4-4.48-9.69-7.68-13-12.55-3-4.44-3.84-10.35-5.54-15.64-.62-1.92-.84-4-1.46-5.9-2.68-8.31-1-13.23,6.1-18.09,7-4.72,8.21-12.48,10.19-19.76.22-.79-1.4-2.42-2.5-3.17a38.47,38.47,0,0,0-5.31-2.61c1.47-.48,3.45-.53,4.31-1.53,3.41-4,7.25-7.89,9.44-12.53,2.55-5.39,3.29-11.61,5.31-17.3a24.25,24.25,0,0,1,4.89-8.42c7.28-7.71,14.56-15.5,22.53-22.46a222.51,222.51,0,0,1,22.55-16.68c11.35-7.62,17.16-19,20.71-31.35,4.27-14.8,12.26-26.48,24.75-35,4.67-3.2,6.3-6,4.71-11.88-1.74-6.44-1.74-13.37-2.19-20.11-.43-6.44-1-7.43-7.34-7.1a26.6,26.6,0,0,1-17.9-5.33c-5.12-3.67-11.78-5.18-17.7-7.77-3.54-1.54-7-3.17-10.43-5-15.93-8.6-33.39-13-50.6-17.8-11.45-3.23-23.32-5.08-35.07-7.08-6.81-1.17-13.8-1.2-20.65-2.15-7.65-1.07-15.24-2.6-22.85-4q-11.18-2-22.34-4c-7.28-1.32-14.63-2.36-21.82-4.09a161.11,161.11,0,0,1-16.27-5.35c-16.69-6-33.24-12.37-50.08-17.87-10-3.28-20.53-5.2-30.83-7.68-9.86-2.37-19.71-4.76-29.61-7-3.41-.75-6.95-.91-10.42-1.42-5.81-.84-11.59-2-17.42-2.56-6.17-.62-12.38-.7-18.57-1.11-.74-.05-1.44-.72-2.15-1.1a8.57,8.57,0,0,1,2-1.79c.71-.3,1.72.15,2.46-.11a28.59,28.59,0,0,0,3.49-1.77c-1.43-1.06-3.28-3.3-4.21-3-2.66,1-6.84.53-7,5.28,0,.52-2.09,1.4-3.23,1.43-6.05.14-12.15-.35-18.16.17-7.09.62-14.12,2-21.17,3.13q-11.48,1.81-22.93,3.78c-9.32,1.61-18.66,3.14-27.92,5-8.56,1.75-17,3.85-25.52,6-10.56,2.64-21.35,4.69-31.55,8.34-19.72,7-39.13,15-58.6,22.68-6.29,2.49-12.34,5.62-18.61,8.17-1.32.54-3.14-.16-4.73-.29a18.83,18.83,0,0,1,3-2.89c10.17-6.39,20-13.53,30.71-18.82,12.81-6.32,26.41-11,39.66-16.48,7.4-3,14.66-6.52,22.22-9.1,15.06-5.14,30.19-10.09,45.47-14.54,14.32-4.18,28.81-7.84,43.33-11.27,9.93-2.35,20-4.09,30.11-5.77,9.4-1.58,18.85-3.24,28.34-3.91s19.12.15,28.66-.21A175.8,175.8,0,0,1,319.6,69c12.38,3,25,4.77,37.57,7.13,10.34,2,20.65,4.12,31,6,12,2.14,24,4.06,36,6a22.81,22.81,0,0,0,4,0c3.26,0,6.53-.24,9.77,0,9.37.61,18.74,1.93,28.11,2,9.22,0,18.44-1.32,27.67-1.81,9.58-.5,19.17-.67,28.76-1,7.19-.29,14.39-.56,21.58-1,3-.2,4.21.7,4.88,3.77,1.87,8.68,3.85,11.26-6.67,15.07-3.37,1.22-7.63.05-11.47-.15-.36,0-.67-.88-1-1.35.65-.43,1.36-1.3,2-1.22,4.65.57,3.13-2.46,2.82-4.71a25.68,25.68,0,0,0-1-4.58c-.55-1.64-1.36-3.19-2.06-4.78-2,1.68-6.13-.11-6.06,5.07.17,12.18-.37,12.36-12.54,10.92-3.13-.37-5.07.42-5.37,4.08-.4,4.91-1.46,9.78-1.77,14.69-.07,1,1.9,3,3,3.07,3.52.1,7.06-.77,10.58-.75,3.13,0,4.62-.8,4.34-4.18-.24-2.82,0-5.66,0-8.5,0-.83-.33-1.89.06-2.46,1.21-1.75,2.7-3.31,4.08-4.94-.05,1.84,0,3.69-.16,5.52-.26,3-.48,6.09-1,9.08-.61,3.39-.59,6.89-5,8.64-2.17.86-3.26,4.34-5,6.54-2.36,3-4.82,6-7.27,9-.51.62-1.14,1.14-1.71,1.71a9.94,9.94,0,0,0,2.37,1.48c4.2,1.18,6.58-1.83,8.53-4.53a95.75,95.75,0,0,0,6.78-11.66c2.15-4.13,5-6,9.64-4a9,9,0,0,0,1.91.22c6.61,1.34,6.6,2.12,3.27,8.17-3,5.45-7.32,8.88-12.64,11.52a14.5,14.5,0,0,0-2.58,2.09,22.56,22.56,0,0,0,3.5,1.19c7.23,1.2,10.27-4.63,14.15-8.79,1.76-1.89,2.67-4.55,4.15-6.74,5-7.28,5.53-7.46,13.64-5.22,5.67,1.57,6.14,1.14,6.32-4.5a72.39,72.39,0,0,1,1-12.07c1.18-5.86,3.54-11,10.67-11.72.46,0,1.28-1.08,1.18-1.47-.88-3.45-1.53-7-3.1-10.19-.78-1.55-3.35-2.21-5.1-3.27-.58,1.71-1.59,3.42-1.63,5.15-.06,2.52.87,5.06.83,7.58-.07,4.34-3.51,7-7.72,6.27-10.58-1.74-14.71,1.65-15.19,12.59-.13,2.83.15,5.68-.11,8.49-.1,1-1.23,1.95-1.88,2.92a9.62,9.62,0,0,1-1-2.77c-.11-3.83-.57-7.76.12-11.47.6-3.24,2.4-6.31,4-9.32,1.64-3.17,3.95-5.37,8.06-4.54a3.41,3.41,0,0,0,2.75-1.49c1-1.72-3.57-11.44-5.59-12.43a9.25,9.25,0,0,1-1.33-1c.58-.34,1.15-1,1.76-1,6.69-.4,13.4-.55,20.08-1.1,4.91-.4,9.82-2,14.66-1.77,8.21.44,15.91-1.64,23.77-3.15,4.2-.8,8.48-1.19,12.66-2.06,7.34-1.53,14.68-3.11,21.93-5,10.5-2.74,21-5.41,31.35-8.79,14.39-4.72,28.61-10.07,43.87-11.11,9.35-.63,18.78-1.51,28.07-.85a138.69,138.69,0,0,0,33.38-2c8.49-1.44,17.21-1.5,25.82-2.15,8.89-.68,17.78-1.33,26.67-2,2.65-.2,3.62.13,3.2,3.52-.49,3.86-.66,8.62,5.28,9.67.65.11,3.87,1.51,1.14,3.8-.35.29.17,1.54.16,2.35a7.89,7.89,0,0,1-.34,1.63c-1.68-1.63-3.42-3.2-5-4.94-.33-.36,0-1.32,0-2-.8.46-2.09.74-2.34,1.41-4.47,11.82-9,23.61-13.11,35.57-3.83,11.27-7.63,22.59-10.5,34.13-2.53,10.24-3.79,20.8-5.54,31.22a57.84,57.84,0,0,0-.92,8.59c0,1,1.1,2,1.71,3.07.73-.9,1.92-1.71,2.11-2.7,1.15-6.06,2.22-12.14,3-18.25,2.18-16,6.63-31.4,12.13-46.49,3.47-9.53,7.91-18.71,11.88-28.07.48-1.14.65-2.4,1-3.57a16.59,16.59,0,0,1,.87-1.92c.41.54.79,1.51,1.25,1.55,2.81.23,6.39,1.36,8.27.07,2.26-1.55,6.15-4.65,1.43-8.48-1.13-.91-1.41-3-1.8-4.68-1.26-5.28-.89-11.44-7.77-13.49-.48-.14-.85-.67-1.26-1,.61-.32,1.25-.95,1.83-.9,2.37.2,4.72.65,7.09.94,5.88.71,11.87.88,17.62,2.18,11.68,2.62,23.18,6,34.83,8.78,14.94,3.51,29.37,1.14,43.54-4.29,9.84-3.77,17.94-10.16,26.23-16.32C986.81,26,999.52,13.59,1015.51,5.8c13.68-6.68,27.78-8.23,41.83-1.24,6.12,3,11.84,6.89,17.64,10.54,6.36,4,13,7.7,17.92,13.67,1.2,1.44,3.92,1.6,5.92,2.4,2.43,1,5.73,1.33,7.09,3.13,3.54,4.69,7.33,3.84,11.85,2.27,5.17-1.79,8-.36,9.38,4.75s5.18,6.39,9.56,6.8c5.51.52,11.21,0,16.54,1.24s10.79,2.94,14.82,6.18a124.61,124.61,0,0,1,19.38,19.31c5.51,6.93,6.52,15.36,3.17,24-1.9,4.88-6.66,4.74-10.43,6.28-1.57.65-4,1.53-5,.84-1.65-1.13-2.48-3.46-3.4-5.53,4.11-.59,8-.6,11.8-1.39a7.41,7.41,0,0,0,4.77-3.49,20,20,0,0,0,1.12-8c-.11-7.17-4.26-12.19-9.53-16.42a80.8,80.8,0,0,0-7.3-5.3c-10.33-6.59-20-15.48-33.91-10.69-.33.11-.88-.27-1.25-.53-4.64-3.28-9.68-6.16-13.77-10-3.28-3.09-6.8-4.57-10.69-2.48-.75.41-2.28.66-2.67.25-5.8-6.19-13.85-7.63-21.36-10.05-2.46-.8-5.41-.29-8.11,0-.84.08-1.57,1.26-2.35,1.94.77.32,1.54.66,2.33,1,4.22,1.67,5.75,5,4.7,9.39a148.66,148.66,0,0,0-3,14.75c-1.07,8.17-2.34,9.3-10.31,7.88-.49-.09-1.06.13-1.49,0-1.12-.46-2.94-.9-3.09-1.63a4.78,4.78,0,0,1,1.06-3.9c2.18-2,4.56-4.19,7.27-5.26,4.26-1.68,5.09-5.4,5.15-8.75,0-1.44-3.52-3.59-5.8-4.29-3.85-1.19-4.79-3.08-2.33-6.05s5.75-5.44,8.2-8.49c1.28-1.59,1.55-4,2.28-6-1.45.09-3.32-.37-4.28.36A123,123,0,0,0,1066.43,34c-2.73,2.76-4.55,6.41-6.89,9.58-.52.7-1.57,1.54-2.26,1.45a2.8,2.8,0,0,1-1.63-2.06c-.27-2.78-.21-5.17,3-6.93,5.15-2.81,4.74-3.83,1.1-8.46-1.58-2-2.16-5.35-2-8,.2-4.39-2.11-6.6-5.43-8.34a8.8,8.8,0,0,0-2.81-.45,11.1,11.1,0,0,0,0,2.76c1.44,6.2,1.48,6.28-4.31,7.43-.7.14-2-1.07-2.52-2-1.06-1.86-1.49-4.12-2.73-5.82-.9-1.25-2.69-1.86-4.08-2.75-.09,1.52-.22,3-.24,4.56,0,3,3,7.15-3.06,7.73.07.71-.07,1.89.25,2,1.4.64,2.94.93,4.4,1.44a6.69,6.69,0,0,1,1.4.88c-.4.37-.74.89-1.21,1.07a6.84,6.84,0,0,1-8-1.64c-2.78-2.83-5.48-5.78-8.51-8.32-.75-.63-3.3-.44-3.91.3-2,2.38,1.18,9,4.23,9.72,2.16.49,4.25,1.31,6.37,2-1.94.33-3.89.58-5.8,1a18.14,18.14,0,0,0-3,1.24,20.34,20.34,0,0,0,2.32,1.74c.8.44,1.85.5,2.53,1,.36.29.15,1.27.19,1.94-1.88-.29-4.12-.05-5.53-1s-1.82-3.14-2.75-4.75a76.36,76.36,0,0,0-4.14-6.76c-.48-.68-2.14-1.33-2.62-1-1,.64-2.27,2.11-2.09,2.95a26.48,26.48,0,0,0,2.72,6.84c.57,1,1.89,1.68,2.88,2.51-1.5.41-3,.76-4.48,1.26a11.22,11.22,0,0,0-2,1.21,8.66,8.66,0,0,0,1.76,1.72,8.29,8.29,0,0,0,3.07,1c6.9.65,9,3,8.91,10.25,0,4.82-2.49,7.3-6.54,5.47-3.33-1.51-2.39.3-2.46,1.87a10.37,10.37,0,0,1-.1,3,10.92,10.92,0,0,1-1.83,2.49,11.65,11.65,0,0,1-1-2.73c-.17-1.47.22-3-.13-4.47a4.11,4.11,0,0,0-2.06-2.66c-.69-.25-2.18.6-2.77,1.38-2.28,3-.93,7.66,2.51,9.48.82.43,1.61.92,2.41,1.39-1.12.87-2.72,2.71-3.27,2.43-2.09-1-4.9-2.43-5.48-4.3-.8-2.6-.14-5.81.48-8.63.47-2.14.57-3.19-2-2.9-5.16.57-7.3-2.63-8.78-6.88a32.37,32.37,0,0,0-2.71-4.86c-.75,2-2.07,4-2.06,6.07,0,1.56,1.64,3.14,2.62,4.66a6,6,0,0,0,1.2,1.09,8.65,8.65,0,0,1-1.38.91c-1.13.49-2.29.9-3.44,1.34a29.5,29.5,0,0,1,3.38,1.8,3.82,3.82,0,0,1,1.19,1.88c-6.35,2.42-7.38,1.6-7.86-5-.17-2.38-1.52-4.66-2.34-7-1.06,2-2.24,4-3.11,6.1-.26.62.6,1.63.51,2.4a19.78,19.78,0,0,1-1.13,5c-.39,1-1.47,1.68-2.25,2.5,1.49.46,3,.89,4.47,1.39,1.06.35,2.37.54,3,1.28a4.15,4.15,0,0,1,.64,3c-.47,3.6-1.59,7.19-1.51,10.76,0,1.54,2.42,3,3.74,4.52.61-1.92,1.59-3.8,1.71-5.75s-.54-4.17-.87-6.25c.9,1.65,1.76,3.33,2.7,5,.24.42,1.06.87,1,1.05-1.26,3-2,6.7-4.18,8.73-1.62,1.49-5.66.5-6.16-2.7-.67-4.34-1.05-9-.18-13.21.62-3,1.52-4.35-2.45-3.86s-5.84-1.37-5.53-5.42a12.93,12.93,0,0,0-.06-4c-.22-.94-1.13-1.72-1.74-2.57-.73.56-1.85,1-2.11,1.72a81.1,81.1,0,0,0-3,9.75c-.16.68.95,2.22,1.74,2.44,6.23,1.77,7.69,6.59,9.4,12.14,1.5,4.91-.23,7.66-3.31,10.46-1.59,1.45-3.23,1.5-4.53-.58-.84-1.35-1.79-2.62-2.69-3.93-.25,1.51-.46,3-.8,4.53-.1.42-.62.73-.92,1.12-.85,1.1-1.68,2.22-2.52,3.33,0-1.36.05-2.71.1-4.06a91.43,91.43,0,0,0,.2-10.46c-.07-.9-2.15-1.63-3.31-2.44a13.43,13.43,0,0,0-1.42,3.4c-.47,4.17-.65,8.39-1.11,12.57A7,7,0,0,1,950.1,98c-.1.15-1.22-.14-1.61-.51a32.57,32.57,0,0,1-5.16-5.28c-.79-1.17-.51-3.07-.65-4.64,0-.12.74-.42.75-.41.56,1,1.11,2,1.62,3,.27.55.33,1.31.75,1.66a12.24,12.24,0,0,0,2.38,1.26c.13-.84.28-1.67.4-2.51q.75-5.19,1.48-10.38c.13-.9.22-1.8.33-2.7-1-.11-2.19-.64-2.83-.24-3,2-7,2.65-8.08,7.18-.71,3.11-2.34,6-3.65,9C935,95.33,934,97.2,933,99.11c-1.48-2-3-4.1-4.42-6.17-.16-.23.12-.8-.05-1-1-1-2.09-1.89-3.15-2.81a20.56,20.56,0,0,0-1.78,3.07c-.5,1.29-.52,2.79-1.09,4a28.53,28.53,0,0,1-2.52,3.81c-.48-1.46-1.71-3.22-1.27-4.34a22,22,0,0,1,4.1-6.28c3.79-4.31,4.39-4.17,7.76.69a13.71,13.71,0,0,0,1.75,1.74,15.88,15.88,0,0,0,1.21-2c1.51-3.54,2.35-7.57,4.61-10.52s-.14-3.55-1.37-4.11c-3.25-1.48-5,.38-5.26,5a12.62,12.62,0,0,1-.86,2.9c-.37-.9-1.07-1.81-1-2.69.12-3.67-2.31-2.67-3.85-1.86a9.89,9.89,0,0,0-3.18,3.6c-2.42,3.81-4.68,7.72-7.05,11.56a8.77,8.77,0,0,1-1.4,1.39c-.19-.57-.43-1.13-.57-1.72-.83-3.4.87-5.87,3-8.26,3.66-4.17,4.66-11.69,12.88-10.08.3.06,1-.66,1.08-1.1s-.23-1.72-.4-1.72c-5.63-.22-.67-2.82-1-4.2-.38-1.91-.48-3.89-1-5.74-.15-.49-2.18-1-2.22-.88a48.47,48.47,0,0,0-2.3,5.53,3.38,3.38,0,0,0,.2,1.89c.42,1.39.93,2.75,1.41,4.13a53.84,53.84,0,0,1-5.7-.45c-2.09-.38-4.13-1.1-6.19-1.67.43,2.28.83,4.56,1.33,6.82.09.42.82.73.86,1.12a20.8,20.8,0,0,1-.07,3c-.83-.57-2-1-2.42-1.75-1.3-2.27-2.31-4.71-3.47-7.05-.64-1.3-1.37-2.55-2.05-3.82-1.32,1-3,1.76-3.86,3.07-1.7,2.74-2.37,6.28-4.49,8.55-2.3,2.47-1.09,3.91.23,5.64A25.6,25.6,0,0,0,902.93,90a4.92,4.92,0,0,0,1.74.61,12.58,12.58,0,0,0,.38-2.41c-.1-2.49-.48-5-.38-7.46,0-.87,1.14-1.69,1.76-2.53a12.56,12.56,0,0,1,1.11,2.64,46.56,46.56,0,0,1,1,7.58C908.64,99.1,921,106,930.58,100.7a5.77,5.77,0,0,1,1.69-.34c-.23.49-.5,1-.69,1.47-1.34,3.6-2.85,7.17-3.87,10.87-.25.93,1.12,2.3,1.74,3.47a10.5,10.5,0,0,0,2.09-2.19c1.76-3.59,3.2-7.35,5.09-10.88s5-4.75,8.9-3.48c1.62.52,3.23,1,4.86,1.54.72.23,1.46.41,2.19.61a11.65,11.65,0,0,1-1.15,2c-2.91,3.31-6.09,6.41-8.73,9.92-1.35,1.79-1.78,4.29-2.62,6.47,2-1.3,4.6-2.16,5.77-4,7-10.79,18.18-16.58,28-24,1.39-1,3.36-3.76,5.38-.64.1.16-2.35,2-3.61,3a2.39,2.39,0,0,0-.36.35l-1.69,2.21c.81,0,1.76.33,2.4,0,4.85-2.39,9.77-4.67,14.4-7.44a105.84,105.84,0,0,0,10.36-7.6c5.43-4.23,10.87-8.45,16.16-12.86,3.86-3.23,7.29-7,11.26-10.1,5.48-4.25,11.38-8,16.88-12.19.81-.63.65-2.92.39-4.34-.09-.47-1.9-.68-2.94-.88a6.15,6.15,0,0,0-1.7.1c.09-.57,0-1.3.32-1.69,2.06-2.5,4.18-4.95,6.34-7.38,1.29-1.45,2.68-2.83,4-4.24-1.81-.48-3.62-.93-5.41-1.42a15,15,0,0,1-3.08-1,15.72,15.72,0,0,1-2.41-1.95c1.09-.33,2.3-1.16,3.25-.92a78.34,78.34,0,0,1,8.76,2.94,18.4,18.4,0,0,1,3,1.87c-.76.7-1.56,1.36-2.28,2.1-3,3.15-7.62,5.73-4,11.29.37.57,0,1.58.19,2.32.3,1.16.48,2.85,1.28,3.28,3.34,1.84,7,6.71,10.11-.54.33-.78,2.25-1.4,3.33-1.25A51.05,51.05,0,0,1,1071,47l4.63,1.24c-2,.3-3.93.61-5.9.88a1.47,1.47,0,0,1-.88-.27c-3.09-2-5-.45-5.75,2.41-1.39,5.63-2.49,11.35-3.35,17.09-.17,1.14,1,3.41,2,3.62,3.26.75,6.76.49,10,1.25,5,1.14,10.85,1.57,14.47,4.56,5.38,4.44,9.56,3.44,14.65.73,1-.51,2.54-.07,3.77.2s2.59,1,3.91,1.42c6,1.89,13,2.47,18,5.87,11.07,7.49,23.72,9,36,12.41,3.09.86,7-3,9.13,1.73m-1128.5,25c-5.17,1.83-10.35,3.63-15.48,5.57-.5.19-.66,1.29-1,2,.43.15,1,.56,1.28.42,5.24-2.62,10.46-5.3,16.18-8l5.5-1.82a10.13,10.13,0,0,0-.58-1.13c-1.71.66-3.4,1.36-5.06,2.12-.21.1-.25.54-.86.83m442-1c3.19.33,6.38.68,9.58,1,6,.6,6.67,1.53,3.75,6.55-1.82,3.15-4.41,5.85-6.63,8.76-.77,1-1.47,2.06-2.2,3.09,1.42.53,2.84,1.51,4.27,1.52,4,0,12.1-14.34,10.2-17.93-.07-.14-.31-.23-.34-.36-1.16-6.55-3.45-13.12.32-19.6.51-.87.88-1.83,1.32-2.76-1.12-.06-2.24-.17-3.36-.17a64.63,64.63,0,0,1-7.75,0c-3.05-.39-5.66-.11-6.43,3.25-1.26,5.52-2.17,11.11-3.73,16.67-1.49.81-3.49,1.27-4.36,2.51-2.82,4.06-5.29,8.37-7.72,12.68-.37.66.21,1.86.36,2.81,2.1-.53,5.45-.43,6.08-1.69,2.57-5.19,6.49-10,6.64-16.31m339-60c2.51,1.17,5,2.44,7.55,3.46a3.2,3.2,0,0,0,2.35-.47c.35-.19.61-1.41.41-1.59-4.33-3.76-3.09-9.4-4.72-14-1.38-4-4.43-3.84-7.09-3.09-1,.29-2,3.88-1.47,5.47s2.88,2.89,4.46,4.26c.59.52,1.27.94,1.91,1.41a8.44,8.44,0,0,1-2.54.54c-1.05-.1-2-.81-3.09-.91-2.94-.27-5.59-.41-5.41,4.07a12.06,12.06,0,0,1-2.11,6.53c-8.28,12.62-11.47,27-14.65,41.38-1.3,5.91-1.47,12.07-2.09,18.13-1,9.9-2.07,19.8-2.94,29.72-.11,1.27.8,2.63,1.24,3.95.89-1.17,2.35-2.23,2.59-3.52.91-4.84,1.52-9.74,2.08-14.64,1.39-12.09,2.63-24.2,4-36.29.52-4.43,1.4-5,5.15-4.37a2.79,2.79,0,0,0,.5,0c8.18,0,18.09-13.39,16.14-21.71-.39-1.69-.39-3.49-.89-5.14-.21-.68-1.59-1.7-1.9-1.53-2.41,1.27-5.44,2.28-6.87,4.35-3,4.29-5.09,9.13-4.19,14.72a18.88,18.88,0,0,1,0,5c0,.49-.91.89-1.41,1.33-1.17-2.17-3.82-4.88-3.26-6.42,2.87-7.94,6.53-15.6,10-23.29.28-.61,1.54-.77,2.34-1.14-.33,6,5.65.68,6.89,3.85l5.46-2.5c-1.13-.84-2.3-1.61-3.37-2.52a42.11,42.11,0,0,1-5.13-5m-61.5,29.5c.72-6.63-1.46-12.22-6-17a12.71,12.71,0,0,1-1.76-2.76,3.64,3.64,0,0,1-.15-1.34,6.55,6.55,0,0,1,1.71,0,23.43,23.43,0,0,1,2.48.85,17.49,17.49,0,0,0,.28-4.05c-.32-2-1.52-3.9-1.49-5.83.08-6.84-2.25-7.88-7.83-8.21-7.69-.46-15.44-.21-23.16-.07a42.65,42.65,0,0,0-10.56,1q-18.57,5.15-37,10.95c-11,3.47-22,7.1-32.92,11.06-4,1.46-7.58,4.19-11.46,6.12a26.6,26.6,0,0,1-5.1,1.38c1.24-1.2,2.47-2.41,3.72-3.59.09-.09.44,0,.47,0,.59-1,1.15-2.12,1.71-3.19-1-.27-2.1-1-3-.73-3.74,1-9.31.64-6.1,7.49.5,1.09,0,2.63,0,4,.14,3.16.25,6.33.54,9.47s1.06,6.51,1.14,9.77-1,6.88-.53,10.18c.62,4.53.83,8.4-3.66,11.2-1.43.89-2.31,2.66-3.47,4q-7.65,8.83-15.32,17.65c-1,1.13-2.13,2.13-3.19,3.2a30.82,30.82,0,0,0,5.75.15,5.68,5.68,0,0,0,3.1-2.05c5.61-7,11-14.13,16.71-21a69,69,0,0,1,7.26-7c2.74-2.47,4.58,0,6.58,1.38,2.25,1.53,2.91,3.46,1.09,5.7-3.86,4.75-7.86,9.4-11.7,14.17a53.21,53.21,0,0,0-3.28,5.13c2.12-.47,4.28-.79,6.33-1.46a6.1,6.1,0,0,0,2.18-2c4.26-4.89,8.63-9.71,12.63-14.8.87-1.12,1.06-4.45.45-4.8-6.29-3.59-5.15-9.75-5.49-15.24-.22-3.43-.84-4.81-4.46-3.2a14.84,14.84,0,0,1-5.56,1c-1,0-2-.82-2.94-1.27a16.76,16.76,0,0,1,3-1.61c6.23-1.88,13-2.7,18.6-5.72,5.92-3.18,11.85-2.74,17.54-2.07,8.22,1,9.82,3.72,9.61,12.33-.09,3.83-1.51,7.68-1.25,11.45.32,4.77.89,9.09-3,13a20.08,20.08,0,0,0-4.58,8c-2.82,9-8,16.25-16.16,20.86-10.63,6-21.61,11.39-32.41,17.08a39.43,39.43,0,0,0-3.53,2.36c1.57.55,3.13,1.19,4.74,1.59.45.11,1-.62,1.63-.8,14.61-4.49,27.73-13.36,43.49-14.57,6.49-.5,12.92-1.84,19.42-2.43,1.15-.11,3.46,1.52,3.56,2.52.94,8.7,1.74,17.42,2.06,26.16a73.7,73.7,0,0,1-1,15.56c-.86,4.77-1,9.67-7,12.64-5.74,2.88-4.9,13.06.46,16.83,1.79,1.26,3.69,2.37,5.53,3.55,3.87,2.48,8.22,2.66,11.72.21s7.53-5.35,4.69-10.88c-.24-.47.42-1.34.47-2,.76-11,1.93-22.05,2.07-33.08.1-8.05-1.19-16.12-1.85-24.17-.35-4.36-.62-8.73-1-13.09-.3-3.34-.12-6.92-1.27-10a25.79,25.79,0,0,1,.73-20.27c3.58-8.2,3.16-16.6,1.42-25-.32-1.56-2.45-2.75-3.74-4.11a33.46,33.46,0,0,0-3.25,3.71c-.57.87-.47,2.14-.92,3.1a2.1,2.1,0,0,1-1.58,1.09,1.89,1.89,0,0,1-1.3-1.34,6.24,6.24,0,0,1,.29-3.34c1.61-3.18.18-4-2.75-4.25-5.74-.42-8.23,3.35-8.49,9.06-.45,9.7.63,19.52-.36,29.14-.81,7.92-2.76,15.47,3.77,21.93.31.3.14,1.1.2,1.67a4.85,4.85,0,0,1-1.7-.28c-6.26-3.8-8-9.29-6.39-16.77a115,115,0,0,0,2.24-19.06c.22-5.5-.74-11.05-.83-16.58s3.9-12.09,7.67-13.08c11.87-3.13,22.22,4.9,22.3,17.19,0,8.37-2.93,16-5.46,23.75-1.81,5.54.27,8.79,5.67,10.17,2.93.74,6.43,1.92,8.16,4.11a65.8,65.8,0,0,1,8.23,14q7.65,17.07,14.45,34.51a19.49,19.49,0,0,1,.67,9.58c-.17,1.08-3.32,1.72-5.13,2.54-.42.19-.93.18-1.34.37-5.44,2.57-10.75,5.44-16.32,7.69-6.76,2.73-11.64,6.7-11.93,14.56a23.89,23.89,0,0,0,.33,3.36l3-.85c2.39-.66,5.62-2.64,7-1.75,7.34,4.68,15.42,5.33,23.67,5.76,4.53.24,9.05.88,13.58.94,10.73.14,21.47.42,32.16-.19,3-.17,6.21-2.86,8.79-5,2.82-2.37,1.75-6.41-1.69-7.71-1.3-.49-2.75-.6-4.07-1-8.78-2.92-17.28-6.15-24.25-12.77-9.27-8.8-12.47-20.78-17.53-31.78-4.9-10.62-9.22-21.51-14.11-32.15-3.54-7.7-5.7-15.22-2.25-23.66a22.67,22.67,0,0,0,1.16-9.95c-.23-3.07-1.5-5.87-5.95-4.19A53.73,53.73,0,0,1,720,119.07c-1,.16-2.25-.87-3.38-1.36a14,14,0,0,1,2.78-1.51,125,125,0,0,1,12.27-2.93c1.74-.27,5.09.28,5.29,1.07,1.14,4.54,3,4.49,6.17,1.88a2.74,2.74,0,0,1,2.42,0c5.08,2.71,8-.59,11-3.76a18.29,18.29,0,0,1,1.5-1.27c0,.68-.1,1.37-.08,2.06.18,5.63.28,11.28.69,16.9.06.74,1.78,1.35,2.74,2,.38-.89,1.12-1.79,1.08-2.65-.2-4.2-1.16-8.44-.79-12.58.4-4.46-.83-7.31-4.91-9-2.27-1-4.44-2.15-4.3,2a3.24,3.24,0,0,1-1.06,2.17c-.2.19-1.58-.3-1.83-.79-1.77-3.42-3.14-7.07-5.14-10.35-1.34-2.19-3.32-5.12-5.37-5.43s-5,1.75-6.74,3.58c-2,2.18-.81,4.71,1.15,6.81a13.6,13.6,0,0,1,2,3.66c0,.05-.94.83-1.25.72-5.63-2-8-9.05-4.54-13.69.71-1,2.15-1.33,3-2.2a14.87,14.87,0,0,0,1.81-2.73,18.1,18.1,0,0,0-2.79-.48c-2.83-.06-5.67,0-8.5,0a6.31,6.31,0,0,1-1.71-.55c.46-.48.83-1.15,1.39-1.38,1.13-.48,2.47-1.19,3.55-1,3.63.78,7.13,2.26,10.78,2.84,5.75.91,8.9,4.06,10.33,9.58,1.25,4.84,6.13,6.54,9.7,2.94,2.35-2.38,3.22-6.25,5.25-9.94m45.5,100.5c6.46,4.12,12.94,8.2,19.33,12.43.77.5,1,1.82,1.47,2.77-1-.18-2.28-.05-3.09-.57-7-4.52-13.86-9.19-20.86-13.68-.85-.55-2.22-.3-3.35-.42a10.44,10.44,0,0,0,1.93,2.43c6.14,4.05,12.36,8,18.5,12,.71.47,1,1.48,1.57,2.24-.87-.08-1.92.13-2.59-.28-6.25-3.84-12.86-7.27-18.53-11.86-4.6-3.72-9.73-4.23-15-4.95-1.17-.16-2.59,1.54-3.89,2.38a37.78,37.78,0,0,0,3.49,2.45c1.88,1,4.76,1.4,5.65,3,2.67,4.67,5.15,9,11.14,10.06,1.36.24,2.37,2.4,3.54,3.68-1.68-.56-3.38-1.05-5-1.67-5-1.91-10.15-3.68-15.07-5.86-2.43-1.07-2.25-1.41-.94-3.48.2-.32.14-1.24,0-1.28-2.94-1-6-1.78-8.86-2.84-1.91-.7-3.7-1.75-5.55-2.64a15.35,15.35,0,0,0,1.65-2.49c.61-1.42,1.8-3.78,1.31-4.24-1.5-1.43-3.88-3.24-5.56-2.94-3.39.63-7.76,1.69-4.88,7.21.35.68-.61,2-.88,3.05-.38,1.51-1.32,3.24-.93,4.54a28.31,28.31,0,0,0,14.11,17.41c7.07,3.65,14.88,5.87,22.4,8.63a14.5,14.5,0,0,0,3.39.41,14.77,14.77,0,0,0-2.43-2.44c-4.21-2.65-8.57-5.09-12.73-7.81-.82-.54-1-2-1.51-3l2.76,1.42c4.81,2.48,9.57,5.07,14.47,7.34,1.23.58,2.94.13,4.44.16-.93-1-1.67-2.4-2.82-3-2.71-1.45-5.66-2.44-8.39-3.86-1.1-.57-1.87-1.79-2.79-2.71a23.69,23.69,0,0,1,4,.13c.86.16,1.58,1,2.43,1.34,4.73,1.85,9.18,6.57,14.53.73,1.41-1.53,4.11-2.29,6.33-2.61,8.22-1.21,16.5-2,24.74-3.12a167.48,167.48,0,0,0,17.73-3c8.41-2.1,16.69-4.73,25-7.27a35.78,35.78,0,0,0,5.21-2.54c-1.76-.7-3.57-1.31-5.26-2.14-.85-.42-1.37-1.53-2.22-1.89-5.54-2.32-11.12-4.54-16.72-6.71-.47-.18-1.2.3-1.8.48.38.38.69.9,1.14,1.14,4.69,2.36,9.4,4.67,14.09,7,1.28.64,2.51,1.39,3.77,2.1a30.57,30.57,0,0,1-5.41.79c-.94,0-1.82-1.14-2.8-1.59q-6.3-2.88-12.66-5.64a7.2,7.2,0,0,0-2.05-.26,9.69,9.69,0,0,0,1.56,1.69c3,2,6,3.95,9,5.89,1.4.89,2.84,1.71,4.26,2.55a47.38,47.38,0,0,1-5.81.39,7.4,7.4,0,0,1-3-1.26c-4.85-2.8-9.63-5.71-14.52-8.42-1-.57-2.44-.46-3.67-.66.85,1.14,1.47,2.67,2.6,3.34,4.13,2.43,8.44,4.55,12.64,6.85a9.23,9.23,0,0,1,1.76,1.67c-.75.18-1.62.7-2.22.48a28.42,28.42,0,0,1-5.9-2.62c-7.08-4.57-13.32-10.84-22.75-10.48-.66,0-2.18-2.44-2-3.55,1.11-7.31,2.08-14.7,4-21.81,6.13-22.37,13.22-44.39,24.56-64.82,2.29-4.11,5.17-9,4.83-13.23-.68-8.36,7.31-17.14,12.41-19.44a28.62,28.62,0,0,0,3.05-1.83,21.58,21.58,0,0,1-3.12-1.18c-1.33-.74-2.55-1.69-3.81-2.54.8-.48,1.63-1.4,2.4-1.36,3,.18,4.5-1.8,3.33-3.82-1.29-2.22-4.13-3.54-6.29-5.25-.42,1.92-1.68,4.16-1.09,5.7,1.62,4.23.18,7.44-2.23,10.59-4.66,6.1-8.81,12.28-11.18,19.89s-7.26,14.35-9.88,21.88c-5.63,16.19-10.78,32.57-15.58,49-2.45,8.4-3.85,17.11-5.46,25.73-.33,1.75-.12,4.74,1,5.42,4.14,2.63,8.64,6.12,13.18,6.38,6.09.34,9,5,13.76,6.94.5.21.64,1.31,1,2-.77.15-1.76.67-2.28.37-2.18-1.23-4.19-2.76-6.32-4.07-1.18-.73-2.48-1.25-3.73-1.86.67,1,1.41,2,2,3.12a21.61,21.61,0,0,1,1,2.75c-.8-.39-1.64-.72-2.41-1.17-6.68-4-13.34-8-20-12a6.06,6.06,0,0,0-2-.34,8.82,8.82,0,0,0,1.46,1.68c5.3,3.68,10.64,7.3,16,11a13.08,13.08,0,0,1,1.46,1.33c-.55.22-1.25.77-1.62.6-2.66-1.23-5.26-2.59-7.87-3.93-2.42-1.25-4.83-2.52-7.24-3.78l5.7,5.24.35.35c.86.92,1.72,1.85,2.59,2.77-1.48-.2-3.3.09-4.36-.68-3.77-2.73-7.3-5.79-10.83-8.84-.12-.1.84-1.32,1.11-2.08a5.18,5.18,0,0,0,.2-1.91q-7.82-1.56-15.69-2.88a2.8,2.8,0,0,0,.16,1.8M382.58,88.67a65,65,0,0,1-7.59,3.4c-1.53.48-3.38.09-5.06-.12-.48-.07-.86-.88-1.28-1.36A19.58,19.58,0,0,0,373,89.1a23.58,23.58,0,0,0,3.56-3.38c-.94-.85-1.84-2.37-2.83-2.44-4.1-.28-8.36-.76-12.29.1-2.92.63-4.55,1.35-4.93-2.34,0-.54-.68-1.42-1.11-1.47-5.5-.56-10.81-3.91-16.53-1.21-2.16,1-4.22,2.45-4.5-1.82-.06-.87-2.46-1.65-3.84-2.36-5.47-2.81-12.93,3.13-17.46-4-.11-.16-.63,0-1,0-3-.18-12.27,5.55-12.27,8.38,0,6-4.62,8.28-7.91,11.69-.86.89-2.3,1.27-3,2.22a3.33,3.33,0,0,0,.23,2.59c3,.51,6,.85,9.07,1.1,2.19.17,3.36.08,1.4-2.58-2.54-3.44-1.08-6.72,3-7.33a24.47,24.47,0,0,1,7.64,0,84.47,84.47,0,0,1,9.1,2.57c-3,2.12-5.91,4.24-8.89,6.33-.22.15-.72-.11-1,0-1,.58-2,1.25-3,1.89,1.09.69,2.11,1.78,3.3,2a72.55,72.55,0,0,0,9.07,1,16.05,16.05,0,0,0,3.63-.62,23.75,23.75,0,0,0-1.2-3c-2.21-4-1-6.38,3.41-6.28,3,.07,6,.74,9.09.91s6.18.81,5.82-4.15c-.13-1.68.87-3.65,1.89-5.13.48-.71,2.2-.57,3.36-.82.14,1.28.67,2.67.33,3.8-.39,1.29-1.61,2.31-2.36,3.51-3.3,5.26-6.67,10.37-13.33,11.92-.5.12-.69,1.56-1,2.39,3.79.51,7.6,1.38,11.35,1.18.68,0,1.16-4.48,1.64-6.9.16-.8-.16-1.73.09-2.48.18-.52,1.06-1.29,1.44-1.2a107,107,0,0,1,11.17,3.18c3.29,1.23,5.13,1.29,5.42-3,.21-3.07.73-6.47,4.62-7.45a5.64,5.64,0,0,1,1.76.16,6.51,6.51,0,0,1-.38,1.41c-1.34,2.61-2.39,5.47-4.16,7.75-3.32,4.26-4.93,10.91-12.52,9.93-.41,0-1.29.83-1.32,1.32s.58,1.23,1.09,1.59c6.17,4.41,9.91,3.32,11.71-3.4.25-.93-.29-2.24.2-2.89.68-.93,2.08-2.1,3-2,3.21.51,6.69.91,9.41,2.5,4.06,2.36,5.53,2.32,5.6-2.88.08-5.92,6.44-9.68,11.85-7.29.85.38,1.38,1.51,2.06,2.29a12,12,0,0,1-2.64.62c-2.78,0-6.8-.62-7.13,2.66-.64,6.28-6.45,8.51-8.9,13.28-.81,1.57-3.67,2.09-5.58,3.1-.6.32-1.17.69-1.75,1,.44.65.74,1.53,1.35,1.92a7.49,7.49,0,0,0,10.92-2.73c5.24-9.6,5.22-9.51,16.08-6.45,3.08.87,4.23-1.2,4.7-4,.4-2.44.73-5.13,2-7.14,2.68-4.3,6.51-5.33,11.32-3,1.15.57,3.07-.41,4.64-.68-1.16-1.33-2.27-3.72-3.49-3.77-3.5-.17-7-2.24-10.69,1.12s-5.77,2.14-7.88-2.6a4.17,4.17,0,0,0-2.11-1.71c-3.85-1.64-7.35-1.1-10.83,2.47m363,48a62.87,62.87,0,0,0-6.08-3.42c-.76-.34-2.59-.05-2.82.47-2.16,4.69,2,17.58,6.71,20.41,10.93,6.61,21.84,13.2,30.53,22.82,2.76,3.06,5.1,6,4.77,10.58-.31,4.27,3.82,5.89,7.79,4.47a24.33,24.33,0,0,1,11-1.22c6.15.79,11-2.38,9.88-7.84-.53-2.48-2.74-4.92-4.79-6.67s-5.18-2.74-7.66-4.3a42.61,42.61,0,0,1-7.26-5.32c-3.37-3.29-5.8-7.82-9.61-10.32-10.39-6.81-21.29-12.83-32.49-19.66m37-72c.67,7.64-1.72,14.73-4,21.83a7.53,7.53,0,0,1-1.1,1.67,9,9,0,0,1-.84-1.93c-.14-.81-.38-1.93,0-2.46,2.5-3.28.72-4.89-2.16-6.27a9.23,9.23,0,0,1-1.89-1.61,18.12,18.12,0,0,0,2.64.24c1.11,0,2.21-.28,3.31-.43-.75-.85-1.49-1.71-2.27-2.54a4.7,4.7,0,0,0-1.12-.92c-.83-.46-1.7-.85-2.56-1.27a7.67,7.67,0,0,0,2.44-.86c.91-.74,2.37-2.06,2.17-2.66-1.14-3.51-2.27-7.15-4.27-10.19-1.2-1.83-4.29-4-5.94-3.62-2.66.65-2.88,3.61-2,6.54,2.07,6.73,3.82,13.55,5.5,20.39.34,1.38-.2,3-.33,4.49-.87-1.41-1.72-2.83-2.61-4.22-1.33-2.09-2.64-4.2-4.11-6.19-.22-.29-1.4-.11-2,.2-.25.13-.27,1.22,0,1.67,4.74,8.52,4.45,17.44,2,26.47-.9,3.4-2.75,6.75,2.07,8.82.58.25,1,1.68.91,2.52-.18,2.87-.86,5.73-.87,8.59a52.18,52.18,0,0,0,.89,8.62c.1.61,1.1,1.08,1.68,1.62.45-.65,1.24-1.26,1.3-1.94.44-4.52.88-9,1-13.58.17-5.39,0-10.78.08-16.17a7.23,7.23,0,0,1,.93-2.31c.64.46,1.54.79,1.87,1.42a8.25,8.25,0,0,1,1.11,3.52c.1,7,.13,14.11,0,21.16,0,2.54-.84,5.06-.82,7.59,0,.77,1.58,1.54,2.44,2.31.47-.79,1.29-1.54,1.37-2.37.45-4.68.88-9.38,1-14.08.17-5.72-.57-11.53.21-17.14s2.9-11.08,4.54-16.58a13.66,13.66,0,0,1,1.62-2.83c.19,1.19.76,2.47.52,3.57-1.16,5.15-2.72,10.23-3.73,15.41-.25,1.28-1.75,4.2,2.13,4.09,2.71-.07,3.67-.88,3.83-3.7.43-7.57,1.17-15.12,2-22.66.11-.95,1.53-1.94,2.56-2.53s3.07-.36,3.18-.86c.44-1.81.83-4,.18-5.64-1.71-4.29-4.13-8.28-6-12.52-1.57-3.61-5.75-5.91-9.28-4.08-4.32,2.25,0,4.83.32,7.23.17,1.13,1.25,2.13,1.92,4.19m-554.5,5.5a28.9,28.9,0,0,1-3.59,1c-5,.73-10.17,1-15.12,2.19-1.82.42-3,3.16-4.87,3.93-.92.37-2.82-2.14-4.06-1.94a38.25,38.25,0,0,0-11.18,3c-2.07,1-3.17,4-5.1.05-.13-.27-1.74,0-2.6.31q-10.76,3.18-21.47,6.47c-1.76.55-3.4,1.66-5.18,1.93a163.08,163.08,0,0,0-31.75,7.8c-13.49,4.89-27.31,8.85-41,13.28-4.25,1.37-8.43,3-12.62,4.5s-8.68,3.16-12.9,5c-.94.41-1.36,2-2,3a24,24,0,0,0,3.41-.58c17.64-5.64,35.21-11.53,52.93-16.9,7.46-2.25,16-2,22.67-5.5,6.48-3.35,13.37-2.83,19.81-5.35,6.61-2.59,14.05-3,21-4.76,4.15-1.07,8-3.67,12.14-4.33,7.69-1.21,15.54-1.38,23.3-2.2,3.75-.4,7.43-1.72,11.16-1.83,4.68-.14,9.38.64,14.08.78a3,3,0,0,0,2.31-1.81c.58-2.69.76-5.47,1.1-8.22l-9,.13h-1.5m599.5,88.5c1.29-4.63,2.45-9.3,3.91-13.88,2.72-8.52,4.94-17.29,8.63-25.39,3.54-7.74,3-18.79,14.68-21a1.85,1.85,0,0,0,1.05-1c1.33-3.27,2.71-6.54,3.83-9.89.3-.89-.24-2.06-.4-3.1-.9.63-2.15,1.06-2.63,1.92-1.21,2.13-1.87,4.58-3.14,6.67-.91,1.51-2.44,2.64-3.7,3.94.32-1.81.25-3.8,1-5.38,2.76-5.69,5.8-11.26,8.78-16.85A7.17,7.17,0,0,1,861,73.25c.52.56,1.36,1,1.51,1.7.25,1.1,0,2.33.11,3.47.09.62.66,1.17,1,1.75.32-.45.67-.88.94-1.35a9.56,9.56,0,0,1,1.34-2.42c3.36-3.06,3-5.88-.28-8.7a10.52,10.52,0,0,1-2.4-2.5,2.36,2.36,0,0,1,.27-2.28,2.28,2.28,0,0,1,2.26.06c.81.87,1.14,2.19,1.86,3.18a2.73,2.73,0,0,0,1.78.93c.35,0,1-.59,1.15-1,1.38-4.06-2.33-13-6.31-14.82-1.09-.52-2.85-.82-3.7-.28a3.72,3.72,0,0,0-.87,3.45c2.33,5.71,0,10.35-2.84,15.06-3.18,5.32-6.94,10.48-9.07,16.22-7.54,20.37-14.86,40.84-21.51,61.52-3.38,10.5-5.29,21.5-7.54,32.34-.35,1.69,1,3.74,1.58,5.63,1.1-1.4,2.83-2.64,3.18-4.2,1.58-7.06,2.77-14.2,4.11-22.3m-40-9a10.33,10.33,0,0,0,1-2.59c1.05-12.07,2.4-24.14,2.94-36.24.52-11.7,4.83-22.17,9.14-32.72.28-.68,1.17-1.1,1.77-1.64.2.92.82,2,.54,2.74-1.38,3.59-3.4,7-4.42,10.64a131.66,131.66,0,0,0-2.85,14.81c-.12.71.85,1.6,1.32,2.4a8,8,0,0,0,1.55-2.16c.79-2.69,1.36-5.44,2.05-8.15,1.66-6.48,3.29-13,5-19.4a3.73,3.73,0,0,1,1.68-2.14c3.16-1.54,3.5-2.89.2-4.73-.86-.48-1.29-1.75-1.92-2.65a19,19,0,0,0,3,.79,20.31,20.31,0,0,0,4-.08c.2,0,.55-1.23.44-1.3a30.16,30.16,0,0,0-3.63-2c-.41-.2-1.07.13-1.47-.07-1.17-.57-2.27-1.3-3.39-2a22.17,22.17,0,0,1,3.8-.93c.66,0,1.55,1,2,.83.69-.27,1.69-1.45,1.54-1.89-1-2.91-1.87-6-3.55-8.49-1.52-2.28-4-3.37-7-1.54-2.62,1.63-1.31,3.34-1.1,5.64a46.88,46.88,0,0,1-1,15.68c-1.44,5.59-5,10.62-6.62,16.19a272.2,272.2,0,0,0-6.09,27c-1.44,8.17-2.3,16.46-3,24.73a37.32,37.32,0,0,0,1,10.06c.39,2,1.77,1.88,2.92-.73m-374.5-19.5c6-1.3,8.1-6.56,10.3-11.08,1.73-3.56,3.83-4.44,7.13-3.89,2.92.5,5.79,1.28,8.67,2,2.14.51,3.2,1.22,1.46,3.61-2.49,3.4-4.6,7.07-6.8,10.66a20.18,20.18,0,0,0-1.26,3,13.81,13.81,0,0,0,3,.71c4.32.06,10.84-10.31,10-15.32-.65-4-1.7-8.29-.77-12,.82-3.26,3.9-6.15,6.51-8.66.88-.85,3.51.42,5.05-.11s2.78-2.12,4.15-3.24c-1.08-1.21-1.95-2.82-3.3-3.53a10.11,10.11,0,0,0-5.07-.87,3.52,3.52,0,0,0-2.55,2c-1.81,6.47-5.08,8.49-11.53,6.83-8.87-2.28-10.64-1.09-12.6,8.07a14.06,14.06,0,0,1-2.25,5.53,66.52,66.52,0,0,1-6.16,6.3c-2.1,2.1-4.19,4.21-6.31,6.3-1.05,1-2.15,2-3.23,3.08a18.38,18.38,0,0,0,5.5.67m150,4c-2.59,2.92-5.14,5.89-7.79,8.76-1.81,2-3.86,3.7-5.6,5.71-.65.76-1.27,2.2-1,3a3.14,3.14,0,0,0,2.7,1.45c2.08-.46,4.69-.92,5.92-2.37,4-4.71,7.47-9.84,11.07-14.86,4.67-6.53,5-6.67,12.61-4.72,5.26,1.35,7.72-1.29,6.4-6.65a17.63,17.63,0,0,1-.74-6.64c.71-4.79,2-9.49,3-14.24a6.63,6.63,0,0,0-.28-2.12c-.47.28-1.21.46-1.37.86-1.21,3.1-3.31,2.2-5.86,2.06-3.12-.18-7.61-2.25-9.08,2.89-1.07,3.75-1.7,7.64-2.46,11.48-1.11,5.56.43,12.34-7.51,15.43m31-50c-2.72-.23-6.13-.22-6.29,3-.2,3.83.88,7.83,2.06,11.55.31,1,3,1.19,4.56,1.84a21.69,21.69,0,0,1,3.29,1.68c.42.27.59.92.88,1.4-.55.14-1.1.29-1.66.41-1.45.29-4.11.42-4.16.86-.92,8-1.55,16.06-2.09,24.12,0,.52,1.23,1.61,1.89,1.61,3.09,0,6.18-.34,9.28-.42,4.79-.11,5.42-1.19,4.35-6-1.57-7.06-1.06-13.93,3-20.21.49-.76.85-1.6,1.28-2.41-1,.07-2.23-.19-3,.26-4.14,2.34-6.34.3-7.88-3.29-.48-1.13-.61-2.41-1-3.56-1.29-3.46-2.65-6.89-4.48-10.83m-9,72c3.09,2.35,5.38.5,7.51-1.54,6.64-6.35,13-12.91,17-21.38,1.84-3.85,5.67-6.58,9.54-5.82,5.16,1,5.43-1.28,5.42-4.94,0-6.22,0-12.43,0-18.64,0-.9-.08-2.22-.63-2.61-2.41-1.69-9.62.88-11.43,3.42-3.58,5-2.8,10.7-2.93,16.28-.1,4.75,1.67,10.35-5.33,12.14-.66.17-1.27,1.07-1.63,1.78a44.43,44.43,0,0,1-16.1,17.38c-1,.63-1.3,2.26-1.42,3.93m-179.5-59.5c-.67,1.71-1.36,3.42-2,5.15-.89,2.44-1.28,5.22-2.72,7.26-1.61,2.28-4.29,3.76-6.24,5.83s-3.25,4.17-4.87,6.25c-.53.69-1.12,1.33-1.68,2,1.21.67,2.65,2.12,3.6,1.85a9.66,9.66,0,0,0,4.6-3.16c2-2.56,3.48-5.54,5.35-8.22.71-1,1.87-2.26,2.91-2.34,3.52-.28,7.2-.66,10.58.08,5.64,1.23,7.08.5,7.47-5.46.48-7.41,6.3-11.23,13.31-9.05,1.48.46,3.44,0,5-.65.55-.22,1-2.53.61-3-1-1-2.49-1.44-3.81-2a5.69,5.69,0,0,0-2.57-.94,24,24,0,0,0-6.37,1.4c-2,.83-3.59,3.26-5.44,3.35-5.75.29-11.28,4-17.7,1.68m332,238c0,2.49.83,5.4-.16,7.4-2.51,5.08.85,8.9,3.62,10.55,4.73,2.82,5.72,7.07,8,11.2,4.07,7.4,8.68,14.65,15.62,19.91a26.27,26.27,0,0,0,2.4,1.44c.17-1.09.79-2.37.43-3.24a29.38,29.38,0,0,0-3.3-5.61c-1.77-2.43-4-4.55-5.56-7.11a172.87,172.87,0,0,1-9.87-17.87c-1.08-2.38-7.16-2.83-3.18-7.32-3.2-7.11-3-14.66-3.1-22.21,0-.89-1.71-2.64-2.08-2.5-2.88,1-6.73,1.65-5.75,6.1.62,2.83,1.93,5.51,2.93,9.26m-272-228c-1-1.41,4.83-3.72-.54-4.45a56.48,56.48,0,0,0-7.13-.06c-7.41-.06-9.41,1.73-10.34,9.26a11.54,11.54,0,0,1-.54,2.76c-1.3,3.31.85,4.34,3.33,4.93,1.26.3,2.65,0,4,.07,6.35.44,8.24,3.4,5.61,9.06-1.17,2.52-2.78,4.83-4.18,7.25-.53.92-1,1.87-1.55,2.81,1.47.11,3.1.68,4.38.24,3.75-1.29,8.31-12.29,7.67-16.31a84.92,84.92,0,0,1-.68-15.56m3-11a23.62,23.62,0,0,0,2.91,3.44c.77.64,2.11.55,3,1.11a11.6,11.6,0,0,1,2.1,2.25c-.89-.1-1.89-.5-2.65-.24-1.2.42-3,1.1-3.23,2a151.17,151.17,0,0,0-3,15.2c-.11.78,1.45,2.32,2.5,2.63a31.37,31.37,0,0,0,7,1.07c3.15.18,5.84-.06,4.45-4.69-.57-1.88-.06-4.21.4-6.23.91-4,3.06-7.91-1.84-11-1-.66-1.28-2.73-1.65-4.21a47.83,47.83,0,0,1-.69-4.78c-3.07,1-7.3-2.34-9.34,3.5m179.5,29.5a32.57,32.57,0,0,0,4.45-.5c2.84-.73,6.17-3.06,8.33-2.23,5.72,2.2,9.31-1.28,13.34-3.59,1.18-.68,1.5-2.85,2.22-4.34-2.17-.78-4.3-1.9-6.53-2.13-.63-.06-1.62,2.43-2.28,3.83a17.71,17.71,0,0,0-.84,3c-.73-1.06-1.48-2.11-2.19-3.18-1.05-1.6-1.72-3.88-3.2-4.69-3.2-1.76-6.84-2.7-10.24-4.11-2.43-1-4.75.42-4.57,2.93.35,4.85.67,9.7,1.51,15m-353.5-41.5c.66-1.55,2-3.16,1.87-4.64-.32-3.63,1.63-5.25,4.38-6.67a18,18,0,0,0,2.75-2.14c-1.34-.18-2.85-.85-4-.45-2.8,1-4.82,1.43-7.48-1.1-1.31-1.26-5-.33-7.56.13a8.62,8.62,0,0,0-4.87,2.46,16.19,16.19,0,0,0-3,6.38c-.24,1,.85,3.18,1.69,3.39a105.17,105.17,0,0,0,16.17,2.64m700.5-50.5c-2.47,2.1-3.64,4.34-1.57,7.54,1,1.63,2.23,3.87,1.92,5.57-1,5.56,2.87,4.32,5.77,4.95a50.38,50.38,0,0,1,7.36,2.53c.55.22.91.93,1.35,1.41a20.78,20.78,0,0,1,.68-2.11c.93-2.11,1.9-4.19,2.88-6.27.44-1,.94-1.88,1.41-2.82a13.91,13.91,0,0,0-3.39-.17c-4.18.83-8.14,1.06-10.84-3.08a41.33,41.33,0,0,0-5.57-7.55m-736.5,42.5c-1.88,3.42.7,4.19,3,4.41a71.38,71.38,0,0,0,9.92,0c2.12-.08,3.92-.2,2.37-3.47-.59-1.25,1-3.72,2-5.46.56-1,1.74-1.76,2.64-2.63-1.27-.13-2.53-.32-3.81-.39a11.45,11.45,0,0,0-3.46,0c-4.68,1.2-10.2.84-12.63,7.46m313.5,79.5c1-.35,2.4-.4,3-1.11,4.59-5.53,9.1-11.13,13.45-16.85.84-1.12.89-2.85,1.3-4.3A27.52,27.52,0,0,0,584.4,134c-1.13.46-1.95,1.76-2.85,2.74-4.36,4.66-8.73,9.32-13,14a16.66,16.66,0,0,0-1.77,3.09,16.61,16.61,0,0,0,5.32,1.32m-21,179c-3.18,4.18-6.55,8.24-9.42,12.62-.76,1.17,0,3.33.08,5,1-1.05,1.91-2.09,2.83-3.15,4.93-5.69,9-12.3,16.74-14.92a5.61,5.61,0,0,0,3.06-4c.16-1.4-1.37-3-2.16-4.49-1.61.85-3.48,1.43-4.77,2.63-2,1.85-3.59,4.14-6.36,6.24m323-150-2.41-.59c.35.86.48,2.21,1.11,2.51,6.25,3,12.51,6,18.92,8.59,3.18,1.31,6.5,3.53,10.18.56,1.37-1.11,3.44-1.31,5.09-2.12a4.14,4.14,0,0,0,1.54-1.78c.09-.16-.58-1-1-1.14-6.61-2.54-13.23-5-19.89-7.46a9.17,9.17,0,0,0-3,0c.64.82,1.1,2,1.94,2.4,4.27,2.12,8.66,4,13,6.11.68.33,1,1.32,1.55,2-.81.15-1.72.63-2.39.41-2.78-.92-5.49-2-8.2-3.13-5.12-2.09-10.23-4.23-16.35-6.34m-252.5-87.5a92.5,92.5,0,0,1-3.93-8.85c-1.09-3.27-1.3-7.06-6.46-4.7a30.28,30.28,0,0,1-5.42,1.36c1.4,4.19,1.79,9.35,4.56,12.23,1.79,1.87,7,.42,11.25,0m328-25c-2.67,3,.71,3.43,2,4.44,1.83,1.39,4.48,2,5.85,3.64,3.15,3.85,4.12,1.68,5.09-1.36.19-.59-.1-1.45.23-1.87,2.09-2.7,2-4.28-1.88-4.54-4.68-.33-6.2-3-5.35-7.44a3.82,3.82,0,0,0,0-2,14.87,14.87,0,0,0-1.43-2.38,7.41,7.41,0,0,0-1.5,1.8,88,88,0,0,0-3,9.67m-695,7c.2-.81.75-1.73.53-2.39-.79-2.35-1.38-4.35,2-5.22.66-.17,1-1.49,1.51-2.28a19.45,19.45,0,0,1-2.69.55c-2.46.14-5,.59-7.38.16-4-.72-10,4.79-8.83,8.73a3.65,3.65,0,0,0,2.85,1.85,73.53,73.53,0,0,0,12.05-1.4m640-15c.47-.47,1.26-.89,1.34-1.42.15-1.1.37-2.74-.23-3.29-1.31-1.18-3.12-1.82-4.72-2.69-.46,1.46-1.3,2.93-1.3,4.39a28.68,28.68,0,0,0,.94,6.54c.9,3.91,1.85,7.82,3,11.65.29.93,1.62,1.52,2.47,2.27.48-1,1-1.89,1.43-2.89,1-2.66-2.16-6.22,1.75-8.29a8.28,8.28,0,0,0-.88-1.4,22.68,22.68,0,0,1-3.85-4.87m-61.5,38.5c7.81-1.34,8.59-8.07,10.44-13.86a21.45,21.45,0,0,0,.93-7c0-1-1.47-2-2.27-3-.53.54-1.28,1-1.57,1.63-2.72,6-5.43,12-8,18.13-.43,1-.06,2.42.44,4.14m-157,4c-5.87-3.12-12.23-3.33-18.64-2.94-1.31.08-2.57.93-3.85,1.43,1.3.83,2.51,2.14,3.93,2.43,5.84,1.19,11.72,2.28,17.64,3,1.94.22,3.55-1.15.92-3.88m-171-7c2.59,3,6.8,3.23,8.46.92,1.37-1.9,0-6.17-1-9.12-.27-.84-3.63-1.38-5.16-.86-1.26.43-2.21,2.54-2.73,4.1-.45,1.34-.09,3,.41,5m-10.5-5.5a57.42,57.42,0,0,0-6.51-3.38c-.53-.21-2.32,1-2.37,1.72a33.49,33.49,0,0,0,.17,7.88c.82,5.35,4.6,1.18,6.91,1.88a3.33,3.33,0,0,0,2.35-.76c.28-.19.2-1.08.14-1.64-.19-1.57-.46-3.14-.69-5.7m442-21,5.32,2.5a24.93,24.93,0,0,0,1.61-4.68,15.06,15.06,0,0,0-.06-5.91c-.36-1.3-1.9-2.29-2.92-3.41a13,13,0,0,0-1.9,2.91,62.82,62.82,0,0,0-2,8.59m-663.5,18.5a22.07,22.07,0,0,0,4.46-.1c.59-.12,1.53-1.66,1.34-1.95-1.28-2.07-2.57-4.31-4.43-5.74-.51-.39-3,1.8-4.59,2.77-.24.15-.67,0-.91.17-1.48,1-2.92,2-4.37,3,2,.62,4,1.26,6,1.84a13.51,13.51,0,0,0,2.49,0m-44.5-4.5c-4-2.85-8.05-5.14-12.87-2-1,.62-1.42,2-2.12,3.05a28.74,28.74,0,0,0,3.28.46c2.55.07,5.1.13,7.64,0a11.22,11.22,0,0,0,4.07-1.45m30.5,2.5c.29-1,1.12-2.63.8-2.91-3.07-2.61-6.36-4.7-10.17-1.1-.63.59-1.33,1.1-2,1.65a8.72,8.72,0,0,0,2.4,1.31c2.63.46,5.3.71,9,1m710.5-10.5c-1.29-.5-2.66-4.49-3.78-.67-.82,2.82.12,6.33.89,9.37.57,2.28,2.38,2.08,2.79-.15.44-2.45.1-5,.1-8.55m-230.5,229.5-1.06-.95-2.1,9.79c.7.07,1.5.39,2.09.17,5.17-1.94,3.16-5.28,1.07-9m168.5-247.5-3,2.15c1.2,1.12,2.25,2.84,3.64,3.18s3.31-.58,5-1a23.25,23.25,0,0,0-2.58-2.83c-.68-.55-1.68-.71-3-1.54m-722.5,26.5c-.45,1.26-4.1,2.58-1.06,3.58s6.53-.27,9.82-.66c.19,0,.24-1.18.35-1.81-2.7-.37-5.41-.74-9.11-1.11m21-1c-2.24.24-4.49.41-6.71.79-.34.05-.53,1-.79,1.57,1.84.21,3.69.43,5.54.63.48,0,1.26.2,1.42,0a2.91,2.91,0,0,0,.54-3m809-33,1,.95a28.54,28.54,0,0,0,1.36-4.33c.07-.39-1-1-1.54-1.48a13.79,13.79,0,0,0-.86,4.86m-144,45,1.34-3.66c-.89.33-2.11.43-2.58,1.07s.12,1.7,1.24,2.59m-719-1,2.5-1.78-2.06-1.22a5.44,5.44,0,0,0-.44,3m707,94,2.35.65c-.79-.89-1.59-1.77-2.38-2.65-.32.66-.65,1.33,0,2m168.5-125.5,2,0c-.2-.52-.39-1-.58-1.54C1028.33,64.5,1027.71,64.83,1027.58,65.67Z"/><path d="M528.83,419.42c1.08-1.73,1.81-3.28,2.77-4.67,1.28-1.82,2.51-3.85,4.25-5.1.85-.61,2.82.33,4.29.57a23.2,23.2,0,0,1-2.24,2.09c-4.65,3.45-4.94,8.87-6.3,13.8-.25.91,0,2-.38,2.83a10.49,10.49,0,0,1-1.92,2.23c-.11-1-.19-1.94-.34-2.89-.27-1.7,0-4-1-5C526,421.36,527.61,420.73,528.83,419.42Z"/><path d="M1062.33,85.92a25.5,25.5,0,0,1-4.59-1.09c.35-.79.48-2,1.09-2.3a24.83,24.83,0,0,1,5.37-2.16c.23-.07,1.49,1.8,1.27,2.17A21.18,21.18,0,0,1,1062.33,85.92Z"/><path d="M530.33,437.42c.18-2.35,1-3,2.06-1.81a35.67,35.67,0,0,1,4.11,6.2c.2.35-.6,1.35-1.09,1.92-.09.11-1.06-.24-1.31-.6C532.87,441.35,531.74,439.5,530.33,437.42Z"/><path d="M1071.33,90.92a2.53,2.53,0,0,1-1.6-1.14c-.71-1.41-1.29-2.89-1.92-4.35.44-.07,1.22-.3,1.28-.18A31.44,31.44,0,0,1,1071.33,90.92Z"/><path d="M574.58,316.42a27.17,27.17,0,0,1,4,2.66,5.93,5.93,0,0,1-.6,1.09C576.82,319,575.7,317.83,574.58,316.42Z"/><path d="M881.83,95.92a7.45,7.45,0,0,1,.2,2.25l-2.36-1.42A5.51,5.51,0,0,1,881.83,95.92Z"/><path d="M741.83,218.42c.43.57,1,1.87.72,2.14-5.32,4.72-10.84,9-18.39,9.72-1.6.15-3.11,1.72-4.56,2.78a10,10,0,0,0-1.62,2c-.35-1.25-1.32-3.32-.94-3.61,2.07-1.58,4.36-3.52,6.78-3.85C730.87,226.63,736,222.2,741.83,218.42Z"/><path d="M1118.58,51.17c-.59-1.43-1.55-2.31-1.66-3.28s.77-1.81,1.21-2.72c.56.58,1.45,1.07,1.63,1.75.78,2.9,2.27,4.2,5.5,4.7,2,.31,3.5,3.18,5.5,4.5,3.36,2.22,7,4,10.41,6.2,6,4,5.92,7.9,0,11.72-2.48,1.61-5,3.1-7.6,4.59a3.45,3.45,0,0,1-1.77.51c-4.7-.28-9.41-.49-14.08-1.06-1.45-.18-2.77-1.4-4.15-2.15,1.5-.25,3-.58,4.52-.72a31.12,31.12,0,0,1,3.48.05,30.72,30.72,0,0,0-2.65-2.21c-2.24-1.51-3.62-9.1-2.53-12.28A80,80,0,0,0,1118.58,51.17Z"/><path d="M1099.83,53.92c-4.34-5-4.62-9.39-.61-10.68,2-.63,4.49.67,6.78.8,2.56.14,4,0,5,3.66,1.66,6,2,10.7-3.22,14.85-.73.58-.83,2-1.22,3,.88.22,2,.17,2.59.71,1.83,1.62,3.47,3.46,5.18,5.22-.56.44-1.11.89-1.66,1.34-3.88-5.69-11.13-4.57-16.18-8-4.48-3.1-8.19-6.6-9.71-11.93-.31-1.09.21-2.42.35-3.63.81,1,2.15,1.87,2.34,3,.88,5,5.43,5.28,8.82,6.9.54.26,2.26-1.18,2.88-2.17C1101.49,56.37,1100.49,55.09,1099.83,53.92Z"/><path d="M987.58,59.42c3.15-.72,5.08.51,6.4,3.53,1.17,2.68,3.22,5,4.5,7.62.43.9-.33,2.38-.54,3.6a13.15,13.15,0,0,1-2.32-2.54c-1.2-2.31-2-4.83-3.3-7.09-.35-.62-1.76-.64-2.68-.94-.12.93-.6,2-.3,2.74,1.39,3.58,3.35,7,4.38,10.64.63,2.22.76,5.3-.34,7.12-1.58,2.62-4.43,4.5-6.89,6.53-.4.33-1.55-.25-2.35-.4a5.94,5.94,0,0,1,.67-1.74A15.13,15.13,0,0,1,987.26,86c3.78-2.89,3.56-5.48,1.31-9.81-2.07-4-5-9.3-.47-14.19C988.41,61.68,987.77,60.47,987.58,59.42Z"/><path d="M1182.33,89.92a19.29,19.29,0,0,0-2.13-4.74,23,23,0,0,0-2.63-3.29c-1.88-2-3.87-4-5.75-6q-4.78-5.2-9.48-10.5a3.49,3.49,0,0,1-.45-1c.56.1,1.28,0,1.67.34,2.61,2.17,5,4.59,7.75,6.59a16.72,16.72,0,0,0,5.77,2.8c3.44.85,9.15,6.49,9.51,9.87s-4,6-2.06,9.76l-1.31.45A21.42,21.42,0,0,1,1182.33,89.92Z"/><path d="M1159.58,74.17c-4.25-5.34-8.49-10.17-12.74-15-.43-.49-.83-1-1.24-1.51a6.59,6.59,0,0,1,2.05.13c3.59,1.42,7.77,1.65,8.51,7.17.33,2.43,3.9,4.26,5.32,6.74,2.68,4.7-.19,10.19-5.6,10.37s-10.72-.54-16.08-.94c-.43,0-.82-.67-1.22-1,.65-.64,1.3-1.83,2-1.83a35,35,0,0,1,8.2.65C1154.34,80.26,1158.58,78.77,1159.58,74.17Z"/><path d="M1022.83,49.92c1.35-1.19,3.15-1.92,4.49-3.15.74-.68.72-2.19,1-3.32-.8.28-1.6.58-2.41.83-.46.15-1.12.48-1.37.3-.46-.35-1.08-1.3-.94-1.49,1.48-2,4-5.87,4.53-5.62,4.13,1.93,4.83-2.11,7-3.4a21.2,21.2,0,0,1,3.21-1.86,25.81,25.81,0,0,1,3.95-.79,26.94,26.94,0,0,1-2.64,3.08c-2.21,1.93-3.88,4-3.09,7.19.19.8.37,1.6.55,2.4-1-.3-2.36-.29-3-1-2.61-2.72-3.45-3-3.7,1.44C1030.12,50.15,1027.35,51.88,1022.83,49.92Z"/><path d="M1147.83,75.92c.88-1.39,1.84-3,3.21-3.49.92-.35,2.5.71,3.61,1.41a3,3,0,0,1,.74,1.88,7.83,7.83,0,0,1-3.31,1.36A12.2,12.2,0,0,1,1147.83,75.92Z"/><path d="M1017.33,62.92l-6,6.25c-.24-.35-.76-.89-.67-1,1.69-2.6,3.4-5.17,5.25-7.65.17-.22,1.4.13,1.92.51C1018,61.16,1017.66,62.09,1017.33,62.92Z"/><path d="M1002.33,73.92c.93-.9,1.62-1.55,2.3-2.2.18,1.12.9,2.73.43,3.25-1,1-2.56,1.5-3.9,2.2A24.77,24.77,0,0,1,1002.33,73.92Z"/><path d="M1020.58,59.17a2.09,2.09,0,0,1,.7-1.2q1.88-1.41,3.77-2.8a5.54,5.54,0,0,1,.5,1.2A22,22,0,0,1,1020.58,59.17Z"/><path d="M1084.33,70.92a8.07,8.07,0,0,1-1.52-2.48c.56,0,1.5-.07,1.61.17A3.86,3.86,0,0,1,1084.33,70.92Z"/><path d="M784.58,215.17c-5,2.78-10.87.43-14-5.08a7.27,7.27,0,0,1-1-2.08c-.45-2.4-.77-4.82-1.14-7.24,1.76,1.35,3.6,2.62,5.26,4.08C777.39,208.07,781,211.39,784.58,215.17Z"/><path d="M806.33,209.42c-3.25-2.26-6.35-4.14-9.2-6.33-.86-.66-1-2.18-1.55-3.31,1.09.13,2.41-.1,3.22.44,5.65,3.73,11.21,7.58,16.74,11.48.54.38.67,1.33,1,2-.77.15-1.73.67-2.28.38C811.63,212.74,809.12,211.17,806.33,209.42Z"/><path d="M320.83,78.42a39.29,39.29,0,0,1,5-.5,22.9,22.9,0,0,1-1.28,2.85c-1.32,2.16-2.74,4.27-4.13,6.4l.15-7A5.06,5.06,0,0,1,320.83,78.42Z"/><path d="M790.58,71.17c-.62-.12-.76-.22-.84-.35l-3.11-5.1c.54-.18,1.33-.69,1.59-.5,1.77,1.32,3.44,2.8,5.14,4.22A13.45,13.45,0,0,1,790.58,71.17Z"/><path d="M788.33,76.92c-1,1.22-1.65,2.19-2.34,3.16l.2-4A5.51,5.51,0,0,1,788.33,76.92Z"/><path d="M221.58,73.17a10.42,10.42,0,0,1-1.19,3.68c-.27-.16-.79-.42-.78-.45A10.18,10.18,0,0,1,221.58,73.17Z"/><path d="M823.58,63.92a.42.42,0,0,1-.48.24l-3.52-.59.37-1.28A23.18,23.18,0,0,1,823.58,63.92Z"/></g></g></svg>