<svg xmlns="http://www.w3.org/2000/svg" viewBox="0 0 1198.52 745.83">
	<path d="M711.45,449A276.27,276.27,0,0,0,742,403.29c7.07-13.37,16.08-25.7,24.16-38.53,1.9-3,3.59-6.17,5.29-9.3a8.93,8.93,0,0,0,.54-2.4c-.69.32-1.63.46-2,1-2.91,3.94-5.4,8.22-8.59,11.9a105.09,105.09,0,0,0-18,28.56,7,7,0,0,1-3.14,3.15c-8.5,4.44-13,12.16-17.24,20.23-.74,1.43-2.29,2.45-3.47,3.66-.23-2.14-1.08-4.43-.58-6.38a67.73,67.73,0,0,1,12.55-25.82c9.93-12.45,19.43-25.24,29.06-37.94,7-9.24,14.29-18.31,20.75-27.92,5.89-8.76,10.61-18.3,16.24-27.24,4.69-7.45,10-14.54,15-21.81a10.65,10.65,0,0,0,.85-2.05c-1.12-.13-2.35-.63-3.32-.32-5.88,1.87-11.66,4.07-17.55,5.89-4,1.24-8.19,1.95-12.24,3.08-2.6.73-5,1.66-3,5.34,1.68,3.1,2.67,6.57,4.26,9.73,2.72,5.41,3.25,10.34-1,15.51-4.59,5.62-7.73,12.7-13,17.43a269.48,269.48,0,0,1-30,22.81,246.27,246.27,0,0,1-29.12,16.53C694.14,375.3,679,379.78,663.45,383c-19,4-38.05,7.83-57,12.05-14.85,3.3-27.45,11.78-41,18.2-12.08,5.75-24.72,10.31-37.15,15.32a32.73,32.73,0,0,1-4.88,1.16,38.87,38.87,0,0,0,4.81,4.22Q568.6,459.1,609,484.1c1.9,1.17,3.4,3,5.29,4.17,3.69,2.32,7.11,4.76,12,5,6.11.24,11.14,5.95,12.15,12.12.74,4.54,2.17,9.17,1.85,13.66-.78,10.66,3.37,20.32,5.22,30.43,2.37,12.9,8.47,24.46,14,36.15a26.54,26.54,0,0,0,6.77,8.65c9.26,7.69,14.28,25.46,5.59,34.93-1.62,1.78-2.32,4.37-3.65,6.44-.44.68-1.55.93-2.36,1.37-.49-1-1.63-2.22-1.35-2.85,2.07-4.7,1.9-9.51.81-14.28-.5-2.2-1.37-5.34-3-6.09-6.06-2.82-8.23-8.07-10.48-13.65-1.14-2.85-3.21-5.34-4.86-8a63.62,63.62,0,0,1-3.24,7.95c-3,5.29-6.25,10.44-9.55,15.54-.43.65-1.78.69-2.7,1a10.74,10.74,0,0,1-.41-2.77c.71-6.18,1.64-12.34,2.22-18.54.15-1.62-.17-3.87-1.2-4.91-7-7-6.5-16.38-8.81-24.91-1.49-5.48-4.1-10.64-5.87-16q-5.7-17.41-11-34.94c-2.65-8.82-9.59-13.76-16.58-18.42-21-14-42.19-27.65-63.32-41.43-5.5-3.58-11.06-7.09-16.59-10.64a1,1,0,0,1-.36-.33c-5-9.38-12.74-6.72-20.32-4.66-15.88,4.31-32,8-47.56,13.17-20.3,6.78-40.28,14.57-60.22,22.38-9.16,3.59-18.42,7.46-26.66,12.72a47,47,0,0,0-14.21,15c-7.78,12.81-14.22,26.43-21.6,39.5-6.29,11.11-13.33,21.79-19.67,32.87-4.69,8.18-9,16.57-13.05,25.09-2.15,4.56.7,12.59,4.72,15.27a2.15,2.15,0,0,0,2-.26c5-5.91,9.75-11.52,10.68-20.16a52.53,52.53,0,0,1,10.91-26.38c6.47-8.38,15.44-13.08,24.82-17.16,1-.43,2.38,0,3.59.08-.59,1.16-.88,2.89-1.82,3.39-10,5.24-14.12,14.79-18.12,24.39a6.81,6.81,0,0,0,.36,4.76c3.84,8.74,1.74,17.1-4.56,24.57-5.75,6.83-10.47,14.56-15.3,22.11-7.27,11.35-13.79,8.4-20.85.52-2-2.2-4.14-4.26-6.33-6.27a2,2,0,0,0-2-.08c-6.64,6.77-15.15,12.79-12.95,24,1.51,7.75,4.69,15.76,13,17.55,5.53,1.2,12.35,1.45,17.76,0,10.27-2.72,18.92-.7,26.77,5.27,4.5,3.42,7.94,8.25,11.73,12.56.67.76.73,2,1.08,3.08-1.26.05-2.7.52-3.74.07-4.53-2-9-4-13.37-6.34-2.71-1.41-4.18-1.22-5.59,1.83-2,4.24-4.78,5.89-10.25,4.64-9.8-2.22-20-2.78-29.95-4.3-5.6-.85-9.94-4.1-13.5-8.4-5.93-7.15-12.37-14.12-14-23.69a54.83,54.83,0,0,1,2.94-28.41,105.65,105.65,0,0,0,3.91-12.37c.71-3,0-5.54-4.21-5.2-1.17.09-2.47-1.32-3.71-2a32.54,32.54,0,0,0,3.44-1.87c2.56-1.82,5.11-3.68,7.54-5.67,2-1.66,3.62-4.48,5.88-5.13,7.64-2.21,11.45-8,15.16-14.21,12.22-20.45,24.55-40.83,36.77-61.27,5.82-9.74,12.15-19.26,17-29.45C332,473.2,342,467.88,353.84,463.9c25.87-8.68,51.85-17.22,77.14-27.41,11.55-4.65,22.24-12.24,32.11-20,10.32-8.14,19.12-18.19,28.71-27.27,16.72-15.81,33-32.16,53.63-43.14q13.68-7.31,27.71-14c5.19-2.45,4.72-7.37,5.15-11.38,1.72-16.23,2.77-32.54,4.18-48.82q1.34-15.39,3-30.75c.44-4.08,1.81-8.12,1.83-12.18,0-4.83.78-9.38-3.17-14.24A53.1,53.1,0,0,0,555.29,196a84.67,84.67,0,0,0-25.76-3.13c-3.39.17-6.84-1.24-10.29-1.5-2.29-.18-4.66.71-7,.57-8.74-.53-17.48-1.06-26.17-2-13.83-1.48-27.62-3.3-41.44-4.93-3.52-.42-7.05-.71-10.58-1-12.09-1-24.17-2.11-36.26-2.93-2.83-.19-5.75,1-8.58.84-6.74-.41-13.44-1.64-20.18-1.81s-13.41,1.1-20.07.77c-10.95-.55-21.85-1.91-32.77-2.86-4.91-.43-9.83-.75-14.75-1-7.53-.39-15.15-1.56-22.57-.8-9.42,1-18.52.07-27.8-1-5.24-.63-10.7.76-16.06.75-5.7,0-11.39-.58-17.09-.93-5-.31-10.05-.88-15.08-.92-3.69,0-7.39.79-11.09.89-15.86.41-31.72.67-47.58,1-12,.29-24.07.44-36.08,1-15.1.77-30.19,1.8-45.26,3-8.94.71-17.85,1.84-26.76,3-10.89,1.38-21.76,3-32.66,4.37-1.08.13-2.3-.87-3.46-1.35.68-.71,1.23-1.82,2-2.05,7.32-2.09,14.62-4.29,22-5.93q17.47-3.86,35.1-7c10.93-1.93,21.9-3.78,32.93-5,15.74-1.7,31.54-2.84,47.33-4.07,14.08-1.11,28.16-2.15,42.26-3s28.1-1.7,42.17-2c18.72-.34,37.44-.2,56.17,0,10.53.09,21.06.57,31.58,1q25.33.94,50.67,2c6.7.28,13.4.58,20.09,1,9.22.59,18.44,1.45,27.67,1.91,3,.15,6.05-.83,9.08-.85,2.53,0,5.06.85,7.59.88,27.19.4,54.39.67,81.58,1.08,5.37.08,10.73.95,16.09.9,10.59-.11,21.23,0,31.74-1.1,11.28-1.2,22.36-4.19,33.63-5.49,11.8-1.37,22.33-6.58,33.54-9.67,12-3.3,23.91-6.8,36-9.55,7.43-1.69,15.15-2,22.72-3.15,8.3-1.23,16.57-2.64,24.85-4,6.08-1,12.16-2.08,18.26-3,7.4-1.09,14.82-2.17,22.26-2.94,2.3-.23,4.74,1,7.07.84,6.74-.45,13.45-1.73,20.18-1.83,17.16-.28,34.33-.1,51.5-.1h18.67c5.55,0,11.13-.31,16.66.07,11.11.78,22.16,2.26,33.27,2.81,6.72.33,13.71.37,20.2-1.09a149,149,0,0,0,28.23-9c10-4.51,17.23-12.64,23.39-22,10.75-16.27,19.6-33.79,32.82-48.49,8.43-9.37,16.37-19.23,27.23-25.8,6.42-3.88,13.52-6.76,20.56-9.45,9.36-3.58,19-6.32,28.43-9.83,13.16-4.91,24.65-1.56,34.58,7.23,5.81,5.15,10.18,11.89,15.78,17.31,3.44,3.34,7.89,5.66,12,8.22,10.34,6.4,21.44,11.79,30.94,19.23,9.3,7.29,20,13.23,26.78,23.51,3.42,5.18,3.83,9.38.47,11.9-3.6,2.7-8.22,3.72-12.2.38-.75-.63-1.54-2-2.14-1.94-9.29,1.43-16.57-7.17-25.95-5.13a3.28,3.28,0,0,1-2.31-.38c-6.53-4.65-14.36-4.11-21.67-5.72-4.92-1.08-9.54-3.47-14.33-5.17a6.69,6.69,0,0,0-3.67-.58c-6.13,1.69-9.27,14.74-4.75,19.13,3.45,3.35,6.64,7,10.24,10.14,6,5.34,12.26,10.5,18.53,15.58,7.94,6.43,16,12.73,24,19,2,1.55,4.36,2.63,6.17,4.33s2.89,3.7,4.3,5.59c-2.15,1.36-4.16,3.48-6.49,3.95-8.26,1.67-14.14-3.69-20.07-8-13.73-10.07-27-20.79-40.87-30.6-12.53-8.85-25.71-16.78-38.5-25.28-5.08-3.38-9.72-7.14-16.19-8.09-7.48-1.09-14.29-.18-19.44,5.4a102.23,102.23,0,0,0-11.35,15.26c-5.92,9.49-11,19.52-17.14,28.86-8.31,12.66-19.13,22.91-31.46,31.81-13.34,9.64-26.9,19-42.26,24.77-11.1,4.19-14.25,12.59-16.25,22.62a44.59,44.59,0,0,1-20,29.26c-11.82,7.71-24.38,14.29-36.65,21.3-3.42,2-6,4.15-5.37,8.72,1,6.77-4.25,10.69-7.73,15.25-2.75,3.62-4.77,7.11-5.45,11.83a26.08,26.08,0,0,1-4.9,11.37c-7.43,9.91-10.63,21.61-14.86,32.88-3.4,9-5.81,18.21-6.26,28a10.15,10.15,0,0,1-6.8,9.54c-6.2,2.26-6.31,8.86-7.82,14-1.33,4.53-1.42,9.42-2.18,14.12a12.62,12.62,0,0,1-1.31,2.95c-.88-.86-2.3-1.59-2.57-2.62-3.77-14.4-3.85-28.75,2-42.62,2-4.68,5.78-8.6,7.77-13.28,3.75-8.77,6.79-17.85,10.12-26.81a8.73,8.73,0,0,0,.34-1.36c.41-2,.8-4.08,1.2-6.12-1.18,1.66-2.75,3.15-3.47,5-2.19,5.59-3.66,11.5-6.18,16.93s-5.32,11.13-9.23,15.61c-8.29,9.51-14.88,19.55-19,31.72-2.44,7.17-8.33,13.25-13,19.55-9.33,12.46-18.91,24.75-25.72,38.87a51.69,51.69,0,0,0-3.79,10.41c-1.21,5.09-4.16,7.84-8.86,10.13a18.55,18.55,0,0,0-8,8.55c-4.49,10-9.36,20-10.29,31.26-.08,1-1.58,1.95-2.42,2.92-.49-1-1.41-1.92-1.41-2.89,0-17.64.77-35.13,10.93-51.09M590,164c-3.89,0-7.78,0-11.67.05-.61,0-1.22.59-1.83.91.59.35,1.18.68,1.75,1.05.76.49,1.5,1,2.25,1.54-.64.82-1.11,1.93-2,2.4-2.48,1.37-10.08,15.49-8.88,17.78.63,1.21,3,1.54,4.52,2.27.44-1,1.34-2.14,1.24-3.14-.72-7.13,1.1-9.26,8.26-10,1.34-.13,3.71-2.25,3.64-2.38-2.55-4.66.94-7.4,3.67-10.52l2.5-.63-.38-1.25A17.41,17.41,0,0,1,590,164m-86.5,261.5a8.32,8.32,0,0,1,1.89-1.47A273.63,273.63,0,0,0,548,403.89c17.73-10.41,35.23-21.19,52.77-31.93,2.11-1.29,5.13-3.08,5.37-4.95.31-2.39-1.49-5.29-3.06-7.48-.32-.45-4.11.76-5.5,2.06-3.81,3.56-6.65,8.35-10.83,11.28-13.87,9.71-28.12,18.88-42.31,28.13-18.23,11.88-38.5,19.62-58.45,27.86C469.61,435.62,452.68,441,436,447a6.3,6.3,0,0,0-1.56,1.22c.63.12,1.33.49,1.87.34,3.85-1.14,7.7-2.31,11.51-3.6,18.55-6.3,37.08-12.65,55.62-18.49,0,1.05-.25,2.79.19,3,1.42.67,3.36,1.46,4.66,1a119.2,119.2,0,0,0,11.34-5.19c4.71-2.31,9.31-4.86,14.1-7,3.5-1.57,7.29-2.51,10.85-4,13.1-5.39,26.1-11,39.24-16.29,13.58-5.44,27.29-10.55,40.93-15.85,18.94-7.37,37.92-14.65,56.78-22.23,14.14-5.69,28.12-11.75,42.15-17.71,11.79-5,22.93-11.63,36-13.34,4.68-.61,8.43-6.55,6.42-9.62-2.86-4.39-6.22-8.46-9.48-12.58-2.14-2.71-4.39-2.36-6.51.14-2,2.34-3.6,5.31-6.08,6.9-11.95,7.62-23.81,15.52-36.35,22.06-11.7,6.11-24.24,10.64-36.4,15.87-17,7.3-34,14.52-50.86,22-2.09.92-3.54,3.31-5.22,5.08s-2.86,4.09-4.82,5.1c-4.09,2.09-8.54,3.49-12.86,5.12-12.4,4.68-24.95,9-37.15,14.11s-24.88,9-35.82,17.48c-5.27,4.08-14,3.75-21.1,4.91M630,353c3.84-9.24,8.4-18.26,11.33-27.78,4.64-15,9.92-30,11.22-45.86,1.08-13.13,3.51-26.21,3.73-39.34.27-16.37-1.23-32.76-1.71-49.15-.14-5-.8-9.65-3.61-14-3.11-4.84-3.26-5-6.49-.45a15.23,15.23,0,0,1-2.72,2.37c-.24-1.26-.48-2.51-.73-3.77-.4-2-.25-5.25-1.33-5.72-2.42-1.07-4.57.42-5.26,3.39-.14.56-1.23.91-1.88,1.35-.35-.58-1-1.14-1-1.74-.28-3.74,1.64-5.92,5.26-6.21,6.5-.52,11.72,2.57,16,6.95,2.43,2.46,3.29,6.45,8.39,4.34,2.37-1,5.54,0,8.34.1-.36-2.77-.76-5.52-1-8.29a14.8,14.8,0,0,1,0-4c.72-4.21,4.47-5.73,8.17-3.49,1,.63,2.38.79,3.37,1.48,2.48,1.7,3.63,1,4.47-1.74a71.13,71.13,0,0,1,3.61-9.5c2.79-5.88,1.15-10-5.23-9.7a266.66,266.66,0,0,0-32.49,3.52c-8.24,1.38-15.45,6.9-24.36,6.42-2.45-.14-5,1.52-7.5,2.26-7.72,2.25-11.74,9.24-17.65,13.81-1.38,1.07-2,3.18-2.9,4.81l6.17-1.24c.14,0,.25-.22.36-.34,2.81-3.19,5.89-4.22,10.2-2.57,3.62,1.38,8.06.87,11.4,2.61s5.51,5.14,8.16,7.87a5.73,5.73,0,0,1,1.17,2c6.16,17.25,7.92,35.19,7.95,53.33,0,11.19-.32,22.4-1,33.57-.49,7.78-.6,16-3.17,23.16-6,16.79-13.3,33.13-20.34,49.53a14.81,14.81,0,0,1-5.37,6c-6.43,4.27-9.86,11,.27,18.19,4.37,3.11,7.61,2.55,10.33-1.36,2.18-3.15,3.62-6.81,5.88-10.75M1137,67a80.58,80.58,0,0,0-8.58-.92,29.42,29.42,0,0,0-6.53,1.09c-.53.13-.91.9-1.36,1.37.63.49,1.2,1.25,1.91,1.42,6.95,1.74,14,3.24,20.9,5.08,10.94,2.9,21.81,6,32.74,9,1.49.4,3.17.11,4.76.15a10.28,10.28,0,0,1,3.44.21c1.57.64,2.86,2.14,4.44,2.51s3.78.26,4.73-.66c.79-.77.78-3.39.07-4.53a102.58,102.58,0,0,0-8.08-11.14c-1.48-1.79-3.63-3-5.47-4.52A47.37,47.37,0,0,1,1182.8,72a28.63,28.63,0,0,1,.76,5.45c-2.79-.52-4.22,4.65-8,1.45-2.86-2.42-6.08-7.45-10.74-1.89-.28.33-1.35.22-1.93,0s-1.32-.83-1.35-1.32.71-1.58,1-1.55c5.23.39,4-3.5,3.71-6.09-.23-2-1.72-3.8-2.66-5.69,2.18-.1,4.38-.11,6.54-.35.7-.08,1.33-.77,2-1.18-.41-.59-.69-1.4-1.25-1.73-10.55-6.29-21.18-12.43-31.68-18.8-5.09-3.08-10.44-6-14.8-10-6.43-5.83-11.69-13-18.2-18.7C1100.68,6.66,1093.82,3,1086,4.2c-3.29.5-8.53-.82-9.37,4.38-.53,3.2.26,6.74,1,10,1.35,6.12,1.52,6.12,8.51,4.42,2.25-.55,4.46-1.28,6.67-2,4.65-1.5,9.47-4.3,14.21-1.72,4,2.19,7.26,5.79,10.92,8.66,6.53,5.12,7.33,11.19,3.74,18.47-2.1,4.26-4.43,8.78-4.92,13.36-.45,4.23-2.64,3.41-4.8,3.17-3.75-.43-7.45-1.28-11.17-1.93-9.37-1.63-15.28-7.7-17.69-16.23-1.55-5.47-2.81-12.18,3.6-16.55.43-.3.53-1.09.78-1.65-.74-.19-1.55-.69-2.2-.53-3.61.9-7.21,1.87-10.73,3a2.9,2.9,0,0,0-1,2.29c7.5,7.65,7.2,18,8.72,27.35,1.31,8.12.33,8.27,8.89,8.27h24.16c1.83,0,3.61-.11,2.26-2.79-.09-.19.61-.83,1-1.2,1.29-1.19,3-2.12,3.84-3.57,1.63-3,2.53-6.31,4.14-9.27,4.32-8,8.22-9.06,14.63-3.74,1.8,1.5,2.54,4.57,3.23,7.06,1.87,6.7-.95,12.39-7.41,13.51M813,214c2.81.2,5.61.36,8.41.61a24.31,24.31,0,0,1,2.77.57c-.47.69-1,1.35-1.41,2.06-1.33,2.19-2.63,4.4-3.94,6.59.67.39,1.82,1.24,1.94,1.11,1.75-1.83,3.36-3.79,5-5.71.21-.25.71-.55.67-.7-1.71-5.27,2.45-3.35,4.49-3.44A27.14,27.14,0,0,1,837,216c1.74.33,3.27.55,1.24,2.89-1.48,1.7-2.31,4-3.2,6.13a3.22,3.22,0,0,0,.44,2.35c.2.36,1.54.54,1.58.45,1.53-3.53,3.17-7,4.38-10.67,1.4-4.2-2.72-3.83-4.73-5.16-1.35-.9-2.74-1.74-4.11-2.61,1.8.2,3.61.39,5.42.61a2.5,2.5,0,0,1,1.32.38c5.62,5.36,12.22,5.63,19.17,3.59,7.14-2.1,14-4.8,19.08-10.6,2.71-3.1,2.81-11,.18-11.19-5.08-.43-10.49-.66-15.32.66-5.1,1.4-9.53,5.1-14.54,7-4.19,1.61-8.8,3-13.2,3-14.22-.22-28.44-1.14-42.65-1.85-4.53-.23-9.08-.44-13.57-1-11.82-1.54-23.57-3.79-35.42-4.81-11.47-1-23-.88-34.55-1.12-6.36-.13-8.45,2.16-8,8.49.09,1.16.89,2.27,1.37,3.41a15.86,15.86,0,0,0,1.53-3.2c1.44-6.27,2.89-7.37,8.92-5.68,5,1.42,9.85,4,15,4.81,11,1.8,22.19,2.81,33.3,4.14,1.53.18,4.44-.83,1.93,2.57-.48.65,0,2,.06,3.06.62-.66,1.66-1.24,1.8-2,.51-2.69,1.43-2.39,3.92-1.83,5.59,1.28,11.41,1.49,17.12,2.2,9,1.13,18,2.33,27.53,4m7.5-19.5L818.93,199c2.24.24,4.26.13,4.79-2.71.08-.43.51-.78.73-1.19,5.67-10.48,11.27-21,17.08-31.39.68-1.22,2.78-2.79,3.69-2.5,2.75.86,5.25,2.56,7.85,3.93-.34.59-.64,1.19-1,1.76-6.2,9.93-12.43,19.84-18.57,29.8-.42.68-.13,1.79-.18,2.69a7.54,7.54,0,0,0,2.79-.43,7.34,7.34,0,0,0,2.36-2.5c4.76-8,9.39-16.11,14.18-24.1,3.42-5.7,6-6.19,11.33-2.15.63.48.81,2.56.32,3.33-3.38,5.3-7.06,10.4-10.44,15.7-.55.88-.05,2.42,0,3.66.92-.51,2.16-.78,2.71-1.55,3.63-5.13,7.07-10.4,10.7-15.53.57-.82,1.94-1.88,2.6-1.69,3.84,1.14,6.65,7.5,5.41,11.61a7.35,7.35,0,0,0-.17,1.41,7.36,7.36,0,0,0,1.76,0c.51-.13,1-.83,1.41-.72,6.32,2,9.06,11.28,4.43,15.78-2.66,2.58-2.48,4,0,6.75,4.93,5.53,3.78,10.83-2.47,15.14a15.79,15.79,0,0,0-3.57,3.4c-1.48,2-2.69,4.12-4,6.2,2.73-.81,5.46-1.61,8.17-2.45.29-.09.45-.51.72-.68,3.57-2.25,7.11-4.54,10.72-6.71,3-1.81,4.42-3.22,3.64-7.8-1.26-7.42-.81-15.37.32-22.88.68-4.48,1.52-8-2.79-10.68-12-7.51-22.72-17.09-36.21-22.36-10-3.91-19.64-8.88-29.59-13-7.54-3.12-15.3-5.69-23-8.41-1.32-.46-3.11-1-4.16-.52-1.86.91-3.32,2.64-4.95,4,1.54.94,3,2,4.64,2.81a22.69,22.69,0,0,0,2.65.83c6.51,2.38,12.85,5.56,19.56,7,5.23,1.08,3,1.88,1.44,4.64-7,12.56-13.57,25.34-20.27,38.06a11.79,11.79,0,0,0-.64,2.42c.9-.15,2,0,2.65-.52a8.36,8.36,0,0,0,2-2.65c6.68-11.72,13.27-23.49,20.08-35.14.88-1.52,3-3.43,4.35-3.34,2.58.17,5.06,1.7,7.58,2.67l-3.1,5.71-.9,1.63c-5,9.09-10,18.17-15,28.26M659,206q1.59,9.09,3.17,18.17c2.11,12.11,5.06,24.15,6.08,36.35.88,10.58.22,21.41-.94,32-1,9.22-2.16,18.75-8.78,26.28a93.54,93.54,0,0,0-5.86,7.56c-4.28,6-4.23,12.67,0,18.33,2.31,3.08,10.54,4.69,13.21,2.37,7.72-6.75,11-15.36,10.63-25.56-.19-4.88,0-9.77,0-14.65,0-12.71.52-25.45-.16-38.12-.57-10.81-2.48-21.54-3.85-32.31-1-8.05-2.42-16.06-3.12-24.14-.65-7.41-.77-14.87-.8-22.31,0-3.92,2.74-9-4.92-8.34-.38,0-.83-.38-1.22-.63-3.16-2-3.94-.43-3.94,2.53,0,7.32,0,14.65.51,22.47m-34.5,294.5c-2.51-1.51-5.1-2.91-7.52-4.55-11.59-7.85-23-16-34.72-23.59-14.4-9.34-29.08-18.25-43.63-27.36-6.88-4.31-13.82-8.52-20.56-13-2.53-1.69-4.06-1-5.9.82s-2.8,3.77-.51,5.83a37.41,37.41,0,0,0,5.68,4.36c13.47,8.06,26.93,16.15,40.53,24,10.72,6.17,19.85,14.72,32.58,18,8.93,2.29,18.05,6.7,22.32,16.68,2.48,5.81,5.86,11.23,8.66,16.91.41.85-.17,2.2-.3,3.31a10.45,10.45,0,0,1-2-1.81c-3.23-5.15-6.68-10.19-9.48-15.57-2.72-5.22-5-10.68-10.65-13.44a12.73,12.73,0,0,0-3.39-.63c.54.92,1,1.89,1.62,2.76,4.08,5.81,8.35,11.5,12.25,17.43,3,4.53,4.5,10.78,8.53,13.65,3.58,2.55,3.12,4.83,3.57,7.82.92,6.24,1.88,12.49,3.28,18.64.74,3.26,2.73,6.23,3.59,9.47,1,3.8,1.31,7.78,2.16,11.63.19.84,1.4,1.46,2.13,2.18.6-.86,1.7-1.72,1.7-2.58a50.86,50.86,0,0,0-.69-7.68c-1-6.72-2-13.46-3.33-20.13-.23-1.16-2-2-2.92-3.07-.61-.74-1.43-1.75-1.34-2.56.19-1.83,1.4-3.63,1.28-5.39-.43-6.4-1.16-12.79-2-19.15-.12-.9-1.39-1.78-2.31-2.39a8.89,8.89,0,0,0-2.6-.71c.39-1,.73-2,1.19-3a52.52,52.52,0,0,0,2.81-6.83M746,232a7.85,7.85,0,0,1,2,0q36.38,9.83,72.73,19.73c6.83,1.87,10.78.82,13-3.4,1.37-2.62.86-3.81-1.94-4.37-6.61-1.3-13.18-2.9-19.83-3.94-22.23-3.46-43.8-9.58-65.16-16.37-12.76-4.05-25.34-8.76-37.71-13.85-3.76-1.54-6-1.49-8.41,1.43a8.08,8.08,0,0,1-2.09,1.35,20.94,20.94,0,0,1-1.08-2.55c-1.66-6.17-2-12.93-7.74-17.27-1.25-.94-2.55-1.83-3.82-2.74l-2.46,5L682,197.94c-.86-.93-2.17-1.73-2.47-2.81a11,11,0,0,1,0-4.95c.68-3.37-1.32-5.26-3.52-7a3,3,0,0,0-2-.07c-.68,4.37-1.41,8.75-1.73,13.16a4.91,4.91,0,0,0,1.71,3.69q13.75,10.07,27.75,19.8a19.41,19.41,0,0,0,6.64,3.19c4.39,1,9,.93,13.36,2,8,1.94,15.82,4.38,24.22,7.11M345,169c-.48-2.93-1.87-4-5.16-4.14-6.24-.17-12.45-1.22-18.67-1.85-3.86-.38-8.4-2.11-11.43-.68-4.94,2.34-9.59,2-14.48,1.65-7.07-.57-14.11-1.36-21.17-1.92-1.17-.09-3,.15-3.47.89-1.53,2.57-2.3,6.29-5.12.77-.38-.74-2.67-.56-4.09-.71q-14.37-1.52-28.74-3c-2.32-.24-4.31,0-4.3,3.19,0,.48-1.83,1.45-2.71,1.34-2-.23-3.86-1.32-5.83-1.49a170.67,170.67,0,0,0-18.07-.89c-2.06,0-4.08,2.07-6.11,3.19,1.87.88,3.72,2.48,5.61,2.52,10.21.26,20.44-.12,30.65.18,15.62.45,31.22,1.27,46.82,2,7.36.31,14.79.16,22.05,1.19,4,.57,7.29,2.67,6.85-3.89-.07-1,1.61-2.13,2.47-3.2.35,1.25,1.3,2.76.91,3.71-.94,2.28-1,3.18,1.89,3.24,5.75.14,11.5.75,17.25.91,6,.16,12.14-.38,18.15.12,12.6,1.05,25.11,3.38,37.84,1.94a37.67,37.67,0,0,1,5.72-.15c8.34.34,16.68.78,25,1.05.52,0,1.49-1,1.55-1.6.38-3.31-.86-5.3-4.56-5.37-2.56,0-5.11-.47-7.67-.76-6.52-.72-13-1.49-19.58-2.16a6.09,6.09,0,0,0-2.12.63A13.31,13.31,0,0,1,385.9,167c.57.7,1,1.48,1.55,2.23a13.49,13.49,0,0,1-2.66,1.65c-.2.07-.86-1.19-1.34-1.81s-1.09-1.95-1.72-2c-8.87-.79-17.76-1.52-26.65-2-4.62-.27-6.2.74-8.6,4.38-.11.18-.67.06-1.53-.42m490.5,102.5a50.17,50.17,0,0,0,3.12-5.21,4.21,4.21,0,0,0,.21-3.33c-3.44-5.62-9.68-5.73-13.4-.38-1.53,2.19-3.09,4.37-4.59,6.59-8.84,13.16-17.88,26.19-26.39,39.56-3.46,5.42-5,12.12-8.74,17.29-6.84,9.48-14.61,18.28-22,27.31-5.24,6.35-11.22,12.19-15.71,19-4.62,7-8.13,14.68-14.59,20.45-2.56,2.29-4.38,5.44-6.37,8.32-.44.63-.16,1.76-.21,2.66a7.59,7.59,0,0,0,1.74-1.34c4.12-5.64,10.55-8.71,14-15.55,8.9-17.4,23.24-31,35-46.48,4-5.29,8.5-10.32,11.86-16,11.89-20.14,23.74-40.28,38.67-58.39.84-1,2.67-1.24,4-1.84-.37,1.25-.43,2.73-1.15,3.73-4.42,6.19-9.28,12.09-13.46,18.44-8.51,12.92-16.69,26-25,39.11-1.41,2.23-3.58,4.42-3.88,6.83-.56,4.43,4.18,1.94,6.09,3.65,2.53,2.28,3.32.7,3.79-2.08,1.11-6.45,2.48-12.82,6.72-18.2q5.87-7.47,11.18-15.36c6.29-9.35,12.37-18.85,19-28.79m168-211c.91,5.26-3.68,6.24-6.69,7.33-7,2.55-7.16,2.19-7.31,9.85-.09,4.72-5.62,13.73-9.25,15.08-6.27,2.32-8.87,5.64-8.68,11.61.06,1.85.82,3.86,3.31,1.75,3.24-2.75,4.51-.74,5.65,2.16a38.64,38.64,0,0,0,3.07,6.22c.57.93,1.82,1.44,2.76,2.15.38-1,.74-2,1.15-3,1.61-4,3.27-8,4.83-12a14.8,14.8,0,0,0,.53-2.76c-1.14-.11-2.42-.6-3.38-.24-2.16.8-4.08,2.22-6.24,3-1.07.4-2.44,0-3.68-.08.66-1,1.16-2.81,2-3,6.94-1.58,10.06-5.32,8-12.58-.13-.47.86-1.26,1.33-1.9.35.3,1,.55,1,.89.76,4.8,6.09,8.22,4.51,13.59a169.72,169.72,0,0,1-6,17c-1,2.38-2.81,5.88-4.67,6.16-6.37,1-6.12,6.38-8.18,10.25-.24.44.16,1.22.27,1.85a5.49,5.49,0,0,0,1.05-.7c3.89-4.18,8.21-8.06,11.5-12.67A91.18,91.18,0,0,0,998.8,105c1.45-3.21,3.66-8.47,2.3-10.1-4-4.72-.07-7.53,1-11,.46-1.46,1.61-2.7,2-4.16.3-1.13-.08-2.45-.16-3.68a17.29,17.29,0,0,0-3.05,1c-1.65.88-3.16,2-4.79,2.94-.51.29-1.51.58-1.74.34a3.13,3.13,0,0,1-.72-1.92c2.87-1.88,6.29-5.59,8.65-5,6.38,1.54,5.75,0,3.62-4.61-.77-1.67.33-4.2.58-6.34,1.17,1.23,2.46,2.37,3.5,3.71a32.07,32.07,0,0,1,2.24,3.86,35.32,35.32,0,0,0,4-3.45,7.25,7.25,0,0,0,1.12-3c.21-.89.59-2.36.2-2.66-.72-.55-2-.49-3-.57-1.4-.09-2.81-.07-4.21-.1a22.55,22.55,0,0,1,3.31-2.9c.74-.45,1.89-.26,2.86-.3,3.75-.13,7.47-5.8,5.27-8.86-3.42-4.75.2-4.11,2.74-4.07,2.17,0,4.33.77,6.51,1.08.9.12,2.44.26,2.66-.16a64.06,64.06,0,0,0,2.65-6.39,16.58,16.58,0,0,1-3.26.35,26.82,26.82,0,0,1-4.13-.86c-2.17-.55-5-2.28-6.35-1.5-3.2,1.81-5.59,5-5.23,9.14.38,4.47-2.45,7.52-7,7.26-7-.39-7-.35-7,7.5m-510,357c-6.79,2.5-13.64,4.86-20.36,7.53-16.6,6.58-33,13.7-49.72,19.88-24.28,9-48.81,17.27-73.21,25.93a55,55,0,0,0-6.23,3.14c2.69,3.35,6.16,2,9.46,1.54.73-.11,1.35-.75,2.07-1,5.23-1.86,10.43-3.81,15.72-5.47,6.94-2.19,14.09-3.75,20.89-6.28,8.64-3.22,17-7.31,25.53-10.72,11.45-4.55,23-8.71,34.5-13.22,15.75-6.19,31.59-12.21,47.12-18.91,14.42-6.22,28.51-13.2,42.68-20,1.13-.54,1.71-2.22,2.55-3.37a14.23,14.23,0,0,0-3.8.5c-15.59,6.6-31.14,13.29-47.2,20.45m282-198c-6.4-1.83-12.78-3.71-19.2-5.48-9.26-2.56-18.64-4.75-27.8-7.66-5.54-1.76-10.73-4.6-16.09-6.94-2.83-1.24-4.51-.13-5.48,2.63-.77,2.22-.66,2.9,2.08,4.27,19.52,9.82,41.24,12.12,61.75,18.49,15.72,4.89,32,8,48,12,5.42,1.34,10.79,2.91,16.23,4.2a5,5,0,0,0,6.25-4c.32-1.85-1.43-3.91-4.7-4.11-5.45-.35-10.86-1.67-16.24-2.86-14.78-3.24-29.53-6.63-44.8-10.47m-447,293c1.67-3.47,3.24-7,5-10.4,1.86-3.56,4.14-6.93,5.8-10.58.65-1.41.12-3.36.12-5.07-1.3,1-3,1.75-3.8,3-1.58,2.45-2.62,5.23-4,7.81-.35.66-1.14,1.09-1.73,1.62,0-.9-.38-1.92-.08-2.68,1.1-2.71,2.56-5.27,3.6-8,.49-1.28.32-2.82.45-4.24-1.13.86-2.77,1.48-3.31,2.61C327,494,323.8,501.48,320.44,508.9c-1.79,4,1,8.86-2.8,12.53a44.46,44.46,0,0,0-7.11,8.52c-4.8,8-9.14,16.19-13.78,24.24-7.05,12.24-14.08,24.49-21.37,36.58-2.06,3.4-5.17,6.15-7.42,9.46-.44.66.52,2.86,1.44,3.66.68.61,2.34.12,3.56.12-.71-.71-1.47-1.37-2.11-2.13a11.21,11.21,0,0,1-1-1.75c.68-.37,1.81-1.21,2-1,2.64,2.59,3.83-.45,4.52-1.6,10.15-16.91,20-34,30.18-50.89,6.88-11.36,14.28-22.4,21.94-34.08m587-372a10.51,10.51,0,0,0-1.05-3c-1.18-1.6-2.57-4.13-4-4.22-3-.18-6.17.91-9.22,1.62-.35.08-.85,1.38-.67,1.59,1.76,2,1.26,4.28-1,4.33a11.16,11.16,0,0,1-6.91-2.83c-1.6-1.41-2.07-4.05-3.14-6.1-1.15-2.21-3.87-3-4.27-.71-.48,2.75.8,6.21,2.32,8.76,1.2,2,4.19,2.85,5.91,4.66,3.3,3.49,2.19,6.37-2.57,7.46-1.36.3-2.91.45-4,1.22s-1.55,2.23-2.3,3.39c1.31.45,2.84,1.6,3.89,1.26,5.52-1.8,9.35-3.21,10.16-10.21.21-1.76.1-7.3,5-3.1.35.29,1.45,0,2-.29,3.37-2.1,6.11-1.17,6.79,2.49a6.24,6.24,0,0,1-.51,2.22c-.57-.24-1.31-.34-1.67-.77-3.26-3.84-5-2.24-7.09,1.39-1.35,2.38-3.94,4-5.87,6.09-3.81,4.06-7.62,8.13-11.25,12.35-.65.75-.42,2.26-.6,3.42,1.26-.24,2.74-.14,3.71-.8,1.31-.88,2.16-2.42,3.34-3.54,3.95-3.75,6-11.28,14-7.16a2.87,2.87,0,0,0,1.49,0c4.88-.66,9.85-1,14.63-2.09,5.75-1.35,7.31-7.18,3.53-11.74a15.5,15.5,0,0,1-1.66-2.31c-1.4-2.5-3.15-2.61-3.9.07-.85,3.05-.72,6.36-1.16,9.53a9.4,9.4,0,0,1-1.22,2.54c-.58-.84-1.59-1.66-1.66-2.55-.34-4.14-.41-8.29-1.08-13m-201,91c9.51,9.25,18.8,18.67,25.48,30.33a8,8,0,0,0,4.62,3.08c4.23,1.13,8.59,1.8,12.91,2.57a15,15,0,0,0,3-.06,12.11,12.11,0,0,0-1.14-3c-4.91-6.8-10.08-13.41-14.81-20.33-5-7.27-10.53-13.43-19.75-15.14-3.8-.7-7.5-1.92-11.23-3-1.68-.46-3.33-1-5-1.57,1.12,1.85,2.17,3.74,3.41,5.5.4.55,1.33.73,2.51,1.58m364-164q-1.31-2.25-2.63-4.5c-.88.6-1.74,1.26-2.67,1.78a23,23,0,0,1-2.4,1,10.83,10.83,0,0,0,.44-2.06c0-3.86,3.58-7.59.92-11.49-2.95-4.33-6.33-8.36-9.46-12.57-1.05-1.43-1.91-3-2.85-4.52,1.39.95,2.74,2,4.19,2.84a20.47,20.47,0,0,0,2.81,1.16,60.55,60.55,0,0,0,.5-7.22c0-.34-2.11-.55-3.19-.95-2.31-.86-4.61-1.74-6.85-2.75-.43-.2-.55-1.07-.81-1.62.56-.21,1.16-.66,1.67-.58,3.73.6,7.46,1.85,11.16,1.78,2.59,0,5.15-1.85,7.73-2.87a36.06,36.06,0,0,1-2.25-4.19,25.64,25.64,0,0,1-1.28-5c-.43-2.58-.68-5.2-1-7.8-2.54.7-5.12,1.29-7.61,2.14-1.88.64-3.58,2-5.49,2.36-5.15,1-5.54,4.87-5.94,8.92-.22,2.21-1.24,4.5-.85,6.56.72,3.75,1.25,8.23,3.6,10.85,5.35,5.95,9.52,12.5,10,20.25.59,8.67.52,9.29,9.23,8.93a8.21,8.21,0,0,0,3-.51m-451,126c-2.58,5.26-4.73,10.79-7.87,15.69-3.75,5.87-8.38,11.19-12.55,16.8-.47.63-.83,2.17-.58,2.34a5,5,0,0,0,3,1,9.27,9.27,0,0,0,4.36-1.42c6.29-4.61,13.33-6.26,21-6,4.48.15,5.44-1.37,4.44-5.67-.79-3.36-1.17-6.82-1.86-10.22-1.62-8-3.27-15.93-5.06-23.87-.19-.85-1.38-1.48-2.11-2.21-.61,1-1.62,2-1.74,3.07-.38,3.29-.41,6.62-1.08,10.43M1134,118q-10-9-20-18c-1.78-1.58-3.51-4-5.55-4.34-4.71-.78-9.59-.55-14.4-.58-.2,0-.85,1.8-.54,2.26a8.57,8.57,0,0,0,2.85,2.6c17.63,10.12,33.08,23.23,49.2,35.44,5.29,4,11.3,7.12,17.23,10.15,1.36.69,3.76-.63,5.67-1-1.26-.84-2.52-1.69-3.8-2.52-.52-.34-1.11-.57-1.6-1-9.53-7.51-19-15-29.07-23.06M762,165c2-4.88,4.12-8.31,10.9-8.31,9.6,0,9.68-.91,9.56-11.1,0-3.36-1.26-6.8-.81-10,.73-5.32-1-7.49-6.16-6.57a32.59,32.59,0,0,1-7.56.93c-3.89-.22-5.42,1.9-5.34,5.12.11,4.3,1.07,8.58,1.25,12.89.11,2.69.41,6.16-1,8-7.43,9.4-9.28,21.18-14.16,31.63-.48,1,.77,2.88,1.22,4.35.87-1,2.08-2,2.57-3.18,3.1-7.69,6.05-15.46,9.55-23.7m-4.5,125.5c1.34,3.78,2.72,7.53,4,11.33.78,2.35.72,5.31,2.17,7,2.14,2.51,5.2,5.6,8.06,5.81,4.05.3,8.53-9,6.72-13.25-2.56-5.93-5.54-11.69-8.57-17.4-.46-.85-2.9-1.73-3.27-1.38-3.57,3.43-6.94,1.5-10.71.37-9.81-2.92-19.75-5.37-29.65-8a3.91,3.91,0,0,0-2,0,8.17,8.17,0,0,0-1.75,1,5.77,5.77,0,0,0,1.34.93c7.18,2.37,14.43,4.52,21.53,7.09,4.15,1.5,10.12-.85,12.13,6.43m-8,118c4.47-5.8,9.13-11.47,13.29-17.5,1.08-1.57,1.58-5.31.64-6.16-2.38-2.16-5.26-.94-6.89,1.76-4.35,7.16-8.23,14.63-12.86,21.61-7.42,11.19-11.47,24.14-22,33.94-8.6,8-13.86,19.74-16.19,32-.18,1-.34,1.92-.5,2.88a30.9,30.9,0,0,0,2.47-2.38,8.45,8.45,0,0,0,1-2.06c3.17-7.1,5.87-14.46,14.11-17.65,2.59-1,4.13-3.22,4-6.59a15.65,15.65,0,0,1,1.86-7.64c1.95-3.55,4.71-6.64,7-10,4.72-7,9.35-14.09,14-22.15m-114,115a68.34,68.34,0,0,0-.1-8.47c-.19-1.41-1.47-2.69-2.25-4-1.22,1.44-3.49,2.9-3.45,4.3A67.16,67.16,0,0,0,631.5,528q3.29,14.81,7,29.53a53.82,53.82,0,0,0,2.94,7.26c3,7.24,5.39,14.83,9.19,21.62,3.12,5.55,7.35,10.37,8.76,16.89.39,1.81,2.55,3.44,4.24,4.7,3.55,2.64,5.8,5.77,5.92,10.4,0,1.23,1.37,2.44,2.11,3.65.26-1.16.59-2.32.77-3.5.91-5.83-1.43-10.88-4.07-15.76-.67-1.24-1.53-3.89-4.11-1.23-1.42,1.47-3,.88-2.85-1.73.07-1.58.15-3.41-.54-4.74-3.48-6.73-7.78-13.08-10.71-20a264.78,264.78,0,0,1-10.55-29.54c-2-6.93-2.49-14.3-4.16-22M74,175c2.72,0,5.46.17,8.16,0,13.41-.94,26.82-1.92,40.22-3,2.69-.22,5.39-1.66,8-1.46a163.27,163.27,0,0,0,37.48-1.21c6.89-1.07,14-.9,21-1.28,1.06-.05,2.7.41,3.06-.09.85-1.2,1.11-2.83,1.61-4.29a18.73,18.73,0,0,0-3.66-.59c-7.69.26-15.4.4-23,1.07-3.51.3-6.69,2-10.54,1.83-7.11-.29-14.26.71-21.4.85-3.87.08-7.81-1.07-11.62-.68-9.8,1-19.54,2.65-29.33,3.86-6.69.83-13.44,1.29-20.14,2.08-2.16.25-2.83,1.37.24,2.95m389-6c-7-2.8-6.93-2.79-8.55,2.91-.23.8-1.14,1.4-1.74,2.09-.74-.72-2.17-1.52-2.1-2.14.74-6.42-4.09-3.13-6.54-3.81a15,15,0,0,0-3.15-.05c-5.85-.32-11.69-.68-17.54-.93-.27,0-.77.9-.86,1.43a25.68,25.68,0,0,0-.42,4.45c0,.69.53,1.93.92,2,7.69.78,15.38,1.52,23.09,2.06,11,.76,22.05,1.27,33.06,2.06,4.81.35,5.28.06,4.35-4.23a6.32,6.32,0,0,1,0-2c.34-3.09-1.12-4-4.06-3.87-5.14.19-10.3,0-16.45,0m335.5,102.5c5.94-.7,11.15-4.89,17.53-3.57.61.12,1.44-.52,2.07-.95.85-.58,1.6-1.3,2.4-2a10.68,10.68,0,0,0-2.77-1c-6.18-.41-12.39-.54-18.56-1.09-4.41-.39-8.76-1.33-13.16-1.89a6.7,6.7,0,0,0-2.51.72,7.9,7.9,0,0,0,2.07,1.19c4.9,1.07,9.83,2,14.72,3.08.81.19,1.48,1,2.21,1.54-.62.47-1.28,1.39-1.87,1.34a103.17,103.17,0,0,1-12.93-1.32c-6.4-1.27-12.69-3.11-19.06-4.55-1.25-.28-2.66.19-4,.31,1.21.88,2.31,2.24,3.65,2.55,6.56,1.52,13.2,2.72,19.78,4.13a8.48,8.48,0,0,1,2.4,1.42c-.77.51-1.53,1.46-2.3,1.46-4.84,0-9.81.53-14.48-.42-8.5-1.73-17.52.64-25.69-3.44-.41-.2-1.46.51-2,1-.16.17.41,1.16.77,1.69,2.53,3.79,7.6,2.63,10.38,4.83,4.05,3.21,8.17,3.48,12.68,3.32,1.16,0,2.3-.81,3.45-1.25a20.1,20.1,0,0,1-3.33-.72c-1.87-.71-3.66-1.62-5.48-2.45l5.85-1.51c.15,0,.41-.08.48,0,4,4.78,9.19,1.75,13.84,1.9,1.94.06,4.64-.31,5.7-1.57,2.25-2.66,4.87-2.31,8.12-2.84M773,188c4.48-9.47,8.88-19,13.51-28.38.69-1.4,2.37-3,3.76-3.21,4-.51,8.2-.09,12.23-.63.66-.09.92-3.2,1.36-4.91-2.15-.42-4.43-1.46-6.44-1.08s-3.73,2.17-5.56,3.37c-.74.48-1.42,1.05-2.12,1.58a11,11,0,0,1,.65-3,9.29,9.29,0,0,1,2.06-2.15c2.51-2.4,2.42-4.52-.46-6.62a2.53,2.53,0,0,1-.47-2.36c1.44-2.92,3-5.61,7-5.7,1.33,0,2.66-1.51,3.87-2.49.11-.09-.57-1.81-1-1.89a62.84,62.84,0,0,0-11.39-1.2c-.55,0-1,4-1.53,6.07-.27,1-.76,2-1,3.09-.39,2-2.92,4.66,1.36,5.64a4.57,4.57,0,0,1-.28,2.24c-2.65,4.91-5.66,9.64-8,14.66-4.09,8.62-8,17.35-11.58,26.19-.88,2.17-.28,4.94-.37,7.43,1.3-1.71,2.61-3.4,3.87-5.13.16-.22,0-.65.52-1.49M1089,38a42.08,42.08,0,0,0-.46,5.79c.47,7.47,11,14.57,18.06,12.72,7.86-2.07,10.74-8,11.74-14.88.89-6-2-11.4-6.89-14.93-2.36-1.7-5.81-2.18-8.85-2.52-1.11-.12-2.34,2.37-3.71,2.63-6.5,1.2-8.93,3.79-9.89,11.19m-365.5,122.5c-3.05,8.06-6.21,16.08-9.07,24.2-.52,1.47.2,3.38.35,5.09.91-1.31,2.14-2.51,2.67-4,2.45-6.81,4.58-13.75,7.16-20.51.59-1.55,2.94-3.89,3.8-3.63,4,1.2,6.25-1,8.25-3.44a13.5,13.5,0,0,0,.24-16.38c-.54-.75-1.41-1.66-1.32-2.4.78-7.07-3.94-7-8.54-6.33-1.64.24-4.43,2.37-4.29,3.25.54,3.28,2.07,6.4,3.23,9.58.57-.22,1.3-.29,1.68-.69,3-3.05,5.62-1.13,6.69,1.37a9,9,0,0,1-.58,7.26c-1.54,2.47-4.47,4.07-6.8,6,1.45-2.77,3.06-5.47,4.29-8.33.51-1.18.22-2.71.3-4.08-1.28.57-3.19.8-3.71,1.77a67.36,67.36,0,0,0-4.35,11.17m347-82-1.88-3.11c1.14.21,2.56.06,3.36.7,3.16,2.56,7,4.85,9,8.17,4.19,6.84,9.93,8.78,17.3,7.73,2.33-.33,4.65-.82,7-1.24-1.67-1.17-3.27-2.48-5-3.5q-11.48-6.62-23.05-13.06c-5.3-2.93-12.72-2.38-15.54-9.45,0,0-1.85.32-1.94.7-.28,1.26-.6,2.83-.11,3.91,4.29,9.37,11.75,15.53,20.81,20,.41.2,1.15-.27,1.74-.42-.22-.47-.31-1.09-.67-1.39-3.45-2.86-7-5.67-11-9m-107,38c-1.3,5.4-4.79,7.26-10.09,6.08-1.63-.36-3.62.93-5.44,1.46.94,1,1.88,2,2.83,3s2.52,1.8,2.57,2.77c.22,3.66-.2,7.36-.08,11,0,1.08.81,2.78,1.64,3.07,1.68.58,4.55-.33,5.3.64,4.06,5.22,4.85-.14,6-1.92a13.47,13.47,0,0,0,1.74-6.68c0-1.29-1.5-2.6-2.32-3.91a28,28,0,0,0-1.1,2.68c-.72,2.38-1.31,4.79-2.05,7.15-.15.46-.72.79-1.1,1.17a3.72,3.72,0,0,1-.85-.93q-1.79-4-3.48-8.05a3.92,3.92,0,0,1-.29-1.69c0-.12,1-.44,1.26-.26,4.8,3.85,3.41-.69,3.45-2.66.22-9.82,4.53-12.69,13.24-8.77a4.2,4.2,0,0,0,2.66-.1c.31-.1.54-1.13.45-1.68a63.82,63.82,0,0,0-1.39-7.42,2.82,2.82,0,0,0-2.09-1.66c-2.17.18-4.33,1.22-6.45,1.13-3.54-.15-4.91,1.16-4.38,5.59M766,372a33.52,33.52,0,0,0-2.45,4c-.61,1.36-1.62,3.64-1.1,4.17a8.76,8.76,0,0,0,5.24,2.61c.86.05,2.12-2.41,2.76-3.91,1.71-3.95,2.56-8.41,4.86-11.95,5-7.68,10.61-15,16.18-22.28,1.61-2.1,3.7-4.37.79-6-2.18-1.23-5.5-3.12-7.88,1.33C778.66,350.62,772.45,361,766,372m51.5-47.5c3.87-8.2,7.67-16.43,11.64-24.58,1.22-2.49,2.37-4.87-.79-6.48-3.45-1.76-4,1.56-4.79,3.49q-10.65,26.74-21,53.61a3.34,3.34,0,0,0,1.06,2.91,3,3,0,0,0,2.9-.15,7.1,7.1,0,0,0,1.93-3.12c3.06-8.21,6-16.45,9-25.68M751,158a34.71,34.71,0,0,1,4.57-1c4.32-.36,5.32-2,4.28-6.24s-1.29-8.51-5.26-11.33c-.71-.5-.9-1.94-1.06-3-.93-6.1-3.94-8.19-9.93-6.44-4.11,1.2-3.5,4.91-2.94,7.76.44,2.25,2,4.46,5.33,2.44.89-.55,3.19.23,4.25,1.12,5.84,4.9,5.53,8.37-.86,12.64a5.92,5.92,0,0,0-1.49,1.15c-.83,1.1-1.53,2.29-2.29,3.44,1.47-.2,2.94-.4,5.4-.6m300.5-113.5c.85-7.9-4.6-13.37-7.88-19.6-.66-1.26-3.64-1.69-5.54-1.65-.55,0-1.13,2.92-1.54,4.54-.2.78.27,1.84-.1,2.44a53.08,53.08,0,0,1-3.53,4.68c1.82.16,3.91-.21,5.39.58,2.07,1.11,3.13,3,1.65,5.75-.66,1.22,0,3.14,0,4.74a101.65,101.65,0,0,0,11.52-1.48m-218,102c1.92.59,4,.84,5.72,1.83,4.58,2.72,6.74,1.58,7.35-3.81.35-3.1.28-5.57-2.56-7.71-1.31-1-2.15-3.14-2.42-4.89-.59-3.88-3.19-4.36-6.09-3.84-2.72.49-6.8.23-5.92,4.88a96.38,96.38,0,0,0,3.92,13.54M595,380c-4.39,2.67-8.73,5.43-13.2,8-3.75,2.15-7.68,4-11.47,6.07-.63.35-1,1.23-1.43,1.87.88,0,1.76.12,2.63.08a5.44,5.44,0,0,0,1.84-.38q13.17-5.62,26.32-11.28c3.4-1.46,7.34-2.23,10-4.51,1.35-1.14.52-5,.42-7.56a3.34,3.34,0,0,0-2.59-.66c-3.93,2.68-7.71,5.58-12.54,8.4m200.5-203.5c-1.76,3.43-3.56,6.83-5.25,10.28-1.15,2.35-2.21,4.74-3.13,7.18-.25.67.13,1.58.22,2.38.7-.26,1.64-.33,2.07-.82a28.42,28.42,0,0,0,4-5.29c4.39-8.47,8.75-17,12.82-25.58,2.3-4.87,3.65-10.44,11.08-8.73.52.12,1.34-1,2-1.55a10.48,10.48,0,0,0-2.43-1.32c-1.52-.4-3.64,0-4.57-.89-2.81-2.73-3.76-.52-4.84,1.42-4,7.29-8,14.61-12,22.92m-78-29c3.57,4.28,2.77,8-2.1,10.55a26.86,26.86,0,0,0-5,3.63c-.28.25.18,1.35.29,2.06,3.26-.77,7.76-.51,9.46-2.56,2.25-2.71,2.86-7.22,3.05-11,.08-1.62-2.71-3.35-4.12-5.09a8.68,8.68,0,0,1-1.07-2c-3.29-7.7-3.3-7.81-11.3-6.91-1.18.13-3.22,2.72-3.09,2.9,2,2.76-.66,7.93,4.52,9,.29.06.86,0,.91-.12,2.06-5.65,5.14-1.89,8.41-.37M509,177c-.16-2.09-.87-4.32-.37-6.23.68-2.6,1-2.47-2-2-4.74.79-9.72.36-14.58.16-3.18-.13-5.08,0-4.72,4.24.5,5.87,1,6.79,7.23,6.81a63.56,63.56,0,0,0,8.95-.1A10.86,10.86,0,0,0,509,177m343.5-33.5L851,144.92c-4.9,4.9-4.9,4.9.56,8.74,4.27,3,11.36,4,13.19,1.39,2.87-4.05,6.12-6.74,11.42-6.13.53.06,1.84-1.56,1.71-1.78a38.7,38.7,0,0,0-4.22-6.2c-.38-.43-2.68-.12-2.91.39-3.2,7.15-8.47,10.17-16.24,8.7a8.22,8.22,0,0,0-1.49,0l-2.14,0c.41-.66.69-1.51,1.28-1.91a4.58,4.58,0,0,1,2.6-.85c2.47.09,3.31-1.21,2.59-3.24-.82-2.32-2.47-2.88-4.94-.47m-341,32c-.11,3.21.44,5.12,4.51,3.67a13.15,13.15,0,0,1,6.91-.09c8.49,1.87,9.26,1.29,8.62-7-.23-3-1.27-3.38-4.09-2.74a15.55,15.55,0,0,1-7.35-.39c-6.44-1.86-6.38-2-7.91,4.79a4.93,4.93,0,0,0-.69,1.71m227-4c1.34-4.09,2.47-8.27,4.07-12.27a61.47,61.47,0,0,1,4.38-8.14c1-1.68,2.34-3.15,3.19-4.88.17-.35-1.19-1.45-1.84-2.21-1.54,1.44-3.61,2.6-4.52,4.36a168.32,168.32,0,0,0-14.2,38.44c-.23.94.63,2.13,1,3.2,1-.8,2.51-1.43,2.85-2.45,1.7-5.13,3.09-10.35,5.09-16.05m-484,491c.34.53.64,1.08,1,1.58,1.18,1.62,2.38,3.23,3.58,4.84.14-1.67.22-3.34.44-5,.1-.75.82-1.54.66-2.17a12.35,12.35,0,0,0-1.78-4.7c-2-2.62-4.56-4.84-6.62-7.44-.41-.51.39-2,.57-3,.73-4.2,1.83-8.39,1.9-12.6,0-1.32-2.76-2.69-4.26-4-.5,1.45-1.36,2.89-1.43,4.36-.19,4.38.3,8.8-.16,13.14-.62,6,3.17,9.73,6.09,15M706,159a8.4,8.4,0,0,1-.74,2.69c-6.1,8.66-7.37,18.6-7.72,28.78a15.28,15.28,0,0,0,.72,3.53c.75-1,1.87-2,2.18-3.15q3.66-13.76,7-27.58a13.2,13.2,0,0,1,7.17-9,20,20,0,0,0,2.85-2.21,19.75,19.75,0,0,0-3.07-2.61c-2.8-1.53-4.74,0-5.86,2.38-1,2.07-1.4,4.41-2.57,7.13m85.5,221.5a15.9,15.9,0,0,0,0,2.49,28.77,28.77,0,0,0,.75,3c.42-.84.9-1.67,1.25-2.54,2.41-5.91,4-12.32,10.47-15.58a6.25,6.25,0,0,0,2.44-3.41c1.21-3.42-1.22-8.07-5.22-8.93-1-.21-3.38,2.59-4,4.39-2.17,6.44-3.86,13-5.73,20.57M642,592c2.91-6.23.06-12.32-.61-18.44-.1-.86-2-2.41-2.56-2.2-6.86,2.74-8.19,9.09-3.62,15a13.32,13.32,0,0,1,2.21,6c.37,2.43,0,5,.13,7.45a6.63,6.63,0,0,0,1,2.19c.64-.65,1.68-1.21,1.84-2,.53-2.48.74-5,1.57-8m-341.5,32.5a14.18,14.18,0,0,0,2-2.66c3.3-7.62,6.65-15.1,14.71-19.16,1.6-.81,3.78-2.44,1.48-5.09-2.13-2.45-3.75-1.86-5.56.29-5.58,6.65-11.32,13.17-16.74,20a5.55,5.55,0,0,0-.4,4.87c.55,1.15,2.64,1.56,4.54,1.8m-2,56c-.26-.83-.26-2.06-.82-2.43-4-2.65-8.14-5.14-12.27-7.63a18.34,18.34,0,0,0-2.75-1.1,24.75,24.75,0,0,1-.24,3.11,25.44,25.44,0,0,1-.92,3c-.7-.37-1.42-.72-2.11-1.11-4.58-2.57-9.12-5.21-13.77-7.66-.66-.35-2.49,0-2.61.41-.58,2-1.69,4.26,1.48,5.38,5.94,2.1,11.8,5.93,17.74,6a67.65,67.65,0,0,1,16.27,2M1012,74c-2.16,4.93-4.45,9.82-6.44,14.82A35.88,35.88,0,0,0,1004.2,95c1.49-1.9,3.65-3.58,4.34-5.74,3-9.19,9.84-15.68,15.31-23.14a30.12,30.12,0,0,1,3.23-4.09c3.76-3.61,7.74-7,11.39-10.72.63-.64.1-2.42.11-3.68a7.76,7.76,0,0,0-2.43,1.26c-1.35,1.54-2.33,3.43-3.74,4.9-1.79,1.88-3.86,3.5-5.83,5.21-1.7,1.48-4.25,2.63-5,4.48-1.8,4.69-4.34,8.3-9.67,10.52m-308.5,78.5c-.62-1.16-1.19-2.36-1.87-3.49s-1.93-2.09-2.05-3.23c-.81-7.7-3.14-9.49-10.66-7.73a2,2,0,0,0-1.32,1.34c0,.51.64,1.52,1.06,1.54,4,.27,4.94,3.2,5.83,6.24.09.3-.13.83,0,1,5.7,4.58,5,8.81-.5,13-.48.37-.21,1.73-.28,2.63,2.28.09,4.62.49,6.83.1.81-.14,1.58-2.07,1.87-3.3a61.22,61.22,0,0,0,1.06-8m-385,424c1.64-3,3.37-5.9,4.86-8.94.41-.85.1-2.05.11-3.08A9.33,9.33,0,0,0,321,566c-6.35,7.67-9.57,16.87-12.45,26.19-.29,1,.7,2.31,1.09,3.47a21.47,21.47,0,0,1,2.12-1.45c1.49-.79,3-1.56,4.56-2.21,2.61-1.1,3.54-2.85,3-5.73a88.52,88.52,0,0,1-.86-9.79m537-449c-3.29-1.44-5,.86-4.8,3.22.19,2.76-2.78,7.62,2.38,8.05,4.6.38,6.34,1.83,6.54,6.21,0,1,1.51,2,2.33,3,.85-.94,2.29-1.79,2.45-2.83.55-3.65,4.62-8.19-2.43-10.35-1.47-.45-2.28-2.93-3.49-4.39-.72-.87-1.64-1.59-3-2.88m-307,42c-2.93-.16-5.87-.46-8.81-.44-1.53,0-4.18.22-4.39.91a20.33,20.33,0,0,0-.55,7.58c.06.61,2.39,1.33,3.7,1.39,4,.18,7.94.12,11.91,0,2.16,0,4.16-.26,2.37-3.36a5.43,5.43,0,0,1-.19-3.36c.52-3-.93-3.73-4-2.76m-291,456c2.81-3.81,5.64-7.61,8.43-11.44,1.15-1.57,3.42-3.57,3.06-4.72-.63-2-2.87-3.58-4.44-5.34-1.68,1.83-3.85,3.39-4.95,5.52-2.31,4.48-4.12,9.23-6,13.94a14.18,14.18,0,0,0-.43,3.73,24.23,24.23,0,0,0,4.31-1.69M937,149c1.91,1,3.84,2,5.71,3,.67.38,1.15,1.07,1.8,1.46.85.52,2,1.46,2.66,1.24,3.35-1.08,6.62-2.42,9.85-3.81.64-.27,1-1.2,1.48-1.83a6.86,6.86,0,0,0-1.71-1.05c-3.36-.84-6.85-2.43-9.5,1.57-.29.45-1.49.29-2.27.4,0-.68.27-1.5,0-2-1.84-3.27-3.79-6.48-5.71-9.7-.6.56-1.6,1-1.72,1.69a39.41,39.41,0,0,0-.57,9M570,166c-3.23.34-6.48.63-9.7,1-1.07.13-2.94.41-3,.84a51.88,51.88,0,0,0-.53,9.64c0,.24,3.4.25,5.2.52,1.37.2,2.71.65,4.07,1,2.9.7,5.91-1.8,5.49-4.45A77.81,77.81,0,0,0,570,166M375,470c-7.26,2.93-14.38,6.34-21.86,8.57-3.08.91-7.35,3.79-10.48-.85a10.69,10.69,0,0,0-2.43-1.94c-.45,1.7-1.73,3.76-1.19,5,1.6,3.75,6.37,4.91,10.13,3,1.92-1,3.85-1.94,5.81-2.83,7.27-3.3,14.57-6.54,21.84-9.86a18.32,18.32,0,0,0,2.59-1.74c-1.14.2-2.27.4-4.41.59M820,141c.86.34,1.77,1,2.56.93a34.59,34.59,0,0,0,4.89-1.37c-1-1.37-1.93-2.79-3-4.09-.93-1.11-2.77-2-3-3.14-.77-4.89-4.31-5.14-7.54-4.12-2.06.65-3.66,3.17-5,5.17-.19.29,2.15,2.72,3.66,3.54,2.13,1.16,4.57,1.75,7.38,3.08M279,614c-2.11,4.23,1.24,6.19,3.56,8.55,2.07,2.11,4.17,4.19,6.26,6.27,1.29,1.29,2.42,2.85,3.94,3.75.73.43,2.39-.13,3.24-.77.41-.3.25-2.07-.24-2.76-4-5.52-8.08-10.93-12.11-16.4-.84-1.16-1.54-2.42-2.3-3.64a42.12,42.12,0,0,1-2.35,5M719,285c8.78,2.92,17.32,7,26.95,6a14.06,14.06,0,0,0,3.43-1.33,14.38,14.38,0,0,0-3.09-1.59c-7-1.64-14-3-21-4.79-4.79-1.19-9.46-2.87-14.22-4.19-.75-.2-1.72.4-2.59.63.69.77,1.23,1.91,2.08,2.25,2.58,1,5.27,1.73,8.42,3.06M949,133c.74-1.64,1.33-2.91-1.54-3.11a9.73,9.73,0,0,1-5.49-2.1c-2.37-2.08-4.33-2.8-6.57-.17-2.51,2.94-.21,4.71,1.71,6.47,2.84,2.6,5.71,5.17,8.67,7.63a11.41,11.41,0,0,0,2.93,1.28c-.07-.85-.19-1.7-.2-2.55A37.44,37.44,0,0,1,949,133M715,288c-3.61-1.33-7.19-2.73-10.84-3.95A10.34,10.34,0,0,0,701,284c.6.94,1,2.34,1.85,2.75,4.59,2.16,9.2,4.32,14,6,5.68,2,11.5,3.61,17.33,5.14.93.25,2.21-.85,3.33-1.33a13.31,13.31,0,0,0-2.67-1.69c-6.42-2.18-12.88-4.26-19.83-6.88m127.5-22.5q-6.88,10.39-13.77,20.79c-.73,1.11-1.32,2.31-2,3.47,1.33.41,2.63.94,4,1.22,1.92.38,3-.09,2.86-2.5a7.53,7.53,0,0,1,1.39-4.36c2.91-4.17,6.33-8,9-12.31,1.1-1.78.8-4.43,1.13-6.69a5.48,5.48,0,0,0-2.62.38m42-114c1.65-.83,3.29-1.67,4.95-2.49,1-.48,1.94-.92,2.92-1.37-.5-.92-.93-1.89-1.51-2.75-2-3-4.17-1.77-5.81.15-4.25,5-8.31,10.14-12.31,15.34-.53.69-.22,2-.3,3.06,1-.33,2.43-.34,3.05-1,2.95-3.36,5.69-6.91,9-10.9M924,140a18.43,18.43,0,0,1,2.72,1.77c1.8,1.68,3.47,3.48,5.19,5.23.34-2.64,1.79-5.85.78-7.81-1.62-3.16-4.59-5.87-7.57-7.94-.82-.57-4.65,1.38-5.39,3-1.13,2.41,0,5.1,4.27,5.78m-228.5,12.5c-4.61-4.24-4.05,1.34-4.87,2.91a52.88,52.88,0,0,0-3.51,9.52c-1.63,5.33-3.16,10.69-4.55,16.09-.22.88.46,2,.72,3,.74-.88,1.79-1.66,2.16-2.68,3.42-9.25,6.72-18.54,10.05-28.82m-1,136c2.19,1.86,4.16,4.07,6.6,5.49q9.57,5.56,19.52,10.48c1.29.64,3.24,0,4.88-.11-.73-1-1.24-2.51-2.24-3-9.37-4.55-18.83-8.93-28.76-12.87m185-154c-.58-.58-1.2-1.14-1.75-1.76-1.64-1.86-3.25-3.74-4.87-5.62-1.12,2.35-2.09,4.8-3.42,7-1.63,2.75-.77,3.92,2.14,3.82,3.32-.1,5.82.45,6,4.54,0,.55,1.76,1.08,2.77,1.43.21.07,1.08-.77,1-1.09a50.63,50.63,0,0,0-1.94-8.35m-580,535c-2.84,3.67.7,6,2,8.79.21.46,2.47.7,2.84.26,3.3-3.94,7-4.29,11.37-2,.53.29,1.56-.37,2.36-.58-.41-.66-.68-1.73-1.24-1.91a149.1,149.1,0,0,0-17.29-4.57M694,297c2.67,2.34,5.25,4.81,8,7,3.34,2.59,6.81,5,10.38,7.31.78.5,2.21,0,3.34-.07-.21-.7-.2-1.71-.68-2.06q-10.81-8-21.76-15.78c-.58-.4-1.53-.27-2.31-.39a17.3,17.3,0,0,0,1.1,2.09A18.24,18.24,0,0,0,694,297m9.5,18.5c.59.59,1.08,1.48,1.78,1.69a22.22,22.22,0,0,0,4,.52,12.35,12.35,0,0,0-1.73-3.07c-5.19-5-10.46-9.89-15.74-14.77a8.19,8.19,0,0,0-2.4-1.39,5.78,5.78,0,0,0-1.68-.22c.07.57-.08,1.34.24,1.67,5,5.06,10,10.06,15.51,15.57M269,592a9.25,9.25,0,0,0,.7-.7l5.66-6.94q-2.83,1.83-5.69,3.63c-.12.08-.37,0-.48,0-5.84,4-11.7,8-17.46,12.05-.65.46-.79,1.66-1.16,2.51a7.64,7.64,0,0,0,2.68.1A11.71,11.71,0,0,0,256,601c4.17-2.81,8.32-5.63,13-9m631.5-401.5c.67,7.33,1.3,14.67,2,22,.09.84.88,1.61,1.34,2.41a7.88,7.88,0,0,0,1.57-2.11c2.22-7.3,1.07-14.36-1.95-21.16a2.74,2.74,0,0,0-3-1.13m-204,132,3.18,1.82c-.06-1.24.36-2.84-.25-3.68-4.2-5.81-8.57-11.49-13-17.11-.54-.7-1.79-.84-2.71-1.24a9.86,9.86,0,0,0,.82,3c3.76,5.63,7.63,11.18,12,17.25M973,123c-.69-.33-1.37-.68-2.07-1-1.14-.51-2.3-1-3.44-1.49-.33,1.52-.68,3-1,4.57-.1.48-.22,1.15,0,1.47,1.84,2.45,3.76,4.85,5.65,7.26,1.44-2.22,3.21-4.32,4.12-6.74.28-.74-1.8-2.36-3.3-4.08M263,630c2.35-2.68,4.77-5.29,7-8.08.61-.76.59-2,.86-3.06-1.13-.1-2.85-.73-3.31-.22a95.55,95.55,0,0,0-8.41,10.44c-.77,1.14-.09,3.26-.07,4.92l3.94-4m16.5-31.5c-2.46,4.8-4.94,9.58-7.34,14.4a6.06,6.06,0,0,0-.23,2,4.85,4.85,0,0,0,1.68-.59c1-.85,2.27-1.68,2.78-2.81,2.82-6.3,5.44-12.69,8.13-19,.2-.46.37-.94.55-1.41-.56.19-1.37.2-1.66.59a34.41,34.41,0,0,0-3.91,6.84M684,321c1.17,2.84,2.21,5.73,3.59,8.46.35.7,1.75.87,2.66,1.29.09-.85.48-1.82.2-2.53-2-5-4-10-6.18-14.84-.29-.66-1.53-.89-2.33-1.32a6.05,6.05,0,0,0-.39,2.3A38.57,38.57,0,0,0,684,321M523,187c4.55,1,9.08,2.06,13.65,2.92.51.1,1.75-.94,1.73-1.4a3.56,3.56,0,0,0-1.3-2.36c-4.07-3-9.63-2.86-14.08.84m31.5,2.5,6-1.08-5.26-8.18a5.78,5.78,0,0,0-1.38.94c-.76,1-1.34,2.1-2.12,3.06-2.6,3.21-1.46,4.58,2.76,5.26m375-35-2.86,4.14c1.79-.21,3.59-.38,5.37-.65a9.66,9.66,0,0,0,2.67-.71c1.23-.58,2.37-1.36,3.55-2-1.54-1.08-2.95-2.58-4.65-3.06-.95-.27-2.37,1.17-4.08,2.33M843,243l-4.5,3.36c1.2.92,2.39,1.85,3.61,2.74a4.33,4.33,0,0,0,1.6.87c1,.17,2.92.41,3,.12a6,6,0,0,0,.3-3.91c-.55-1.26-2-2.13-4-3.18m-95.5,33.5c-3.18-5.48-9.51-4.12-14.17-6.39-.93-.45-2.54.49-3.83.79a14.55,14.55,0,0,0,3.26,2,104.13,104.13,0,0,0,14.74,3.55m-158-93,2.91-3.09c-1.49-.13-3-.33-4.46-.38-.77,0-2,0-2.24.39a16.83,16.83,0,0,0-2.09,5c-.13.71,1.08,1.68,1.67,2.53l3-3.29c.23-.25.47-.47,1.2-1.21M484,186l4.5.14a22.44,22.44,0,0,0-3.26-3.07,6.6,6.6,0,0,0-3.53-1,27.28,27.28,0,0,0-5.59.91c-.29.06-.35,1.06-.51,1.63,1.8.46,3.59,1,5.4,1.37a19,19,0,0,0,3,0m20,1a38,38,0,0,0,5,1,26.06,26.06,0,0,0,5.28-.36c.12,0,.35-1.94,0-2.15-1.53-1-3.23-2.25-4.89-2.29-2,0-4.12,1-6.15,1.67A4.83,4.83,0,0,0,504,187m126.5,311.5a12.56,12.56,0,0,0-1.83,3.11,18.43,18.43,0,0,0-.17,4.15c0,.89,0,1.78-.07,2.68,1.13-.09,2.66.27,3.33-.33,3.61-3.24,1.58-6.23-1.26-9.61m-25-325,10.34.66c-.22-.72-.23-1.82-.71-2.09-3.21-1.88-6.25-1-9.63,1.43M1027,47c-.33,2.34-.71,4.67-.89,7a5.65,5.65,0,0,0,2.17.58c.85-1.76,1.89-3.58,2-5.45.07-.8-1.82-1.75-3.32-2.14m-436.5,128.5,3.42.59c.19-2.53.42-5.07.47-7.6a5.45,5.45,0,0,0-2.06-.45c-.71,1.79-1.26,3.64-1.82,5.49a11.57,11.57,0,0,0,0,2m192,69a42.9,42.9,0,0,0-2.33,5.48c-.12.45,1.22,1.31,1.88,2l3.06-7.85a5.59,5.59,0,0,0-2.61.39M810,221c.74-1.6,1.53-3.18,2.11-4.83a7.12,7.12,0,0,0-1.81-1.11c-1,1.48-2,3-2.94,4.59-.31.53-.94,1.22-.8,1.61.73,1.95,1.82,1.83,3.44-.26m-12.5,31.5c0-1.7-.07-3.4-.11-5.1l-2.89,4c-.09.12-.27.26-.26.38.08,1.25.19,2.51.3,3.76l3-3m-200-88c1.72,3,2.8-.11,3.9-.61s1.7-1.94,2.52-3a18.22,18.22,0,0,0-4.57.19c-.78.23-1.24,1.56-1.85,3.39m242,94,2.71-.71c-.38-.57-.63-1.42-1.17-1.67a44.11,44.11,0,0,0-5.49-2c-.21-.07-.69.72-1,1.11,1.5.94,3,1.88,5,3.32M456,183c.37-5.06-3.54-2.31-5.54-2.91-.49-.15-1.3.75-2,1.17,1.51.58,3,1.22,4.55,1.71a13.45,13.45,0,0,0,2.95,0m416-31a26.19,26.19,0,0,0-3.37,2.49c-.36.35-.09,1.33-.11,2a29.69,29.69,0,0,0,5-1.23c.23-.1-.33-2.14-1.52-3.29m101-14c-1.14,1.14-2.3,2.27-3.36,3.47a7.67,7.67,0,0,0,1.13,1.28c1.1-.84,2.14-1.77,3.18-2.7a3.63,3.63,0,0,0,1-1.05c.51-1.21.89-2.47,1.32-3.71-.93.74-1.86,1.48-3.29,2.71M796,218l1-4c-.57-.06-1.51-.37-1.67-.15-1,1.5-1.88,3.11-2.79,4.69a9.76,9.76,0,0,0,3.5-.5m-13.5-5.5c-1.54-2.39-2.68-.58-3.4.58-.34.54.4,1.76.66,2.68a9.26,9.26,0,0,0,2.74-3.26M423,180l2.5-.75c-1-.42-2-1.16-3-1.16s-2,.74-3,1.16a19.78,19.78,0,0,0,3.5.75m559.5-59.5c-.24-1.24-.43-2.49-.78-3.7,0-.18-.85-.14-1.31-.2.19,1.12.3,2.27.6,3.37.11.4.65.69,1.49.53M346,178l-1.53-3-2,1.82A13.92,13.92,0,0,0,346,178m572-14c.45-.88.89-1.77,1.34-2.66l-3,1.34c.22.44.45.88,1.67,1.32M769,241c0,1,0,2,0,3a6.76,6.76,0,0,0,.9,0A3.47,3.47,0,0,0,769,241Z"/>
	<path d="M16.2,745.76c-.36.14-.5,0-.59-.1-.73-1-1.44-2-2.16-3,.4-.2,1.12-.59,1.13-.57A13.75,13.75,0,0,1,16.2,745.76Z"/>
	<path d="M1150.2,70.26c-4.54-3.9-2.65-8.13-.51-11.6.84-1.38,4.29-1.42,6.57-1.48.7,0,1.69,1.84,2.14,3,.84,2.13,1.84,4.36,1.91,6.58a7.77,7.77,0,0,1-1.91,5.47c-.89.81-3.38.07-5.09-.26A10.68,10.68,0,0,1,1150.2,70.26Z"/>
	<path d="M1148.45,52a2.7,2.7,0,0,1,2.33-.1,7.35,7.35,0,0,1,1.67,1.59c-.78-.11-1.57-.16-2.33-.34A2.81,2.81,0,0,1,1148.45,52Z"/>
	<path d="M620.2,504.76a14.76,14.76,0,0,1-1.49-3.5l2.34-.15A24.72,24.72,0,0,1,620.2,504.76Z"/>
	<path d="M912.7,154.26a6,6,0,0,1-2.28,1.24c-2,.12-4,0-6,0,.12-.45.11-1.18.37-1.29,2.44-1,4.93-2,7.41-2.92A10.62,10.62,0,0,1,912.7,154.26Z"/>
	<path d="M771.2,147.76a40.21,40.21,0,0,0,1.42-4.07,27.29,27.29,0,0,0-4.14,1.3,11.31,11.31,0,0,0-2.33,2c.1-1.06-.15-2.35.37-3.13,1.19-1.76,3-4.75,4.1-4.55a8.85,8.85,0,0,1,5.5,4.2c.68,1.3-.54,3.87-1.43,5.6a8.33,8.33,0,0,1-3.26,2.84,25.12,25.12,0,0,1-3.94,1.58c.68-1.38,1.31-2.78,2.07-4.11A10.82,10.82,0,0,1,771.2,147.76Z"/>
	<path d="M1095.7,35.26c2-1.65,3.58-3.33,5.5-4.42,6.1-3.45,12,.19,12.26,7.31.15,5.05.56,10-5.29,12.7-7.21,3.31-12-1-13.56-7.32C1094,41.09,1095.12,38.2,1095.7,35.26Z"/>
	<path d="M834.7,142.76a17.41,17.41,0,0,1,1.73-3.75c1.67,2,3.39,4,4.94,6.06.14.19-.84,1.2-1.31,1.83-.46-.39-.91-.8-1.4-1.17C837.44,144.82,836.19,143.92,834.7,142.76Z"/>
	<path d="M542.2,174.76a24.71,24.71,0,0,1-4.65-1.15c.71-.53,1.35-1.35,2.14-1.54C541.56,171.63,543,172.1,542.2,174.76Z"/>
	<path d="M562.2,169.26a25.7,25.7,0,0,1,1.14,3.36l-3.35-.57A12.59,12.59,0,0,1,562.2,169.26Z"/>
</svg>